<svg width="151" height="44" viewBox="0 0 151 44" fill="none" xmlns="http://www.w3.org/2000/svg">
<path d="M39.2031 0H55.2242L16.5622 43.6875H0.5L39.2031 0Z" fill="#FDF4F3"/>
<path d="M72.0274 0H90.242L51.6361 43.6875H33.3242L72.0274 0Z" fill="#F8B0A9"/>
<path d="M27.3649 35.8857H40.4728L33.323 43.6871H20.6123L27.3649 35.8857Z" fill="#F8B0A9"/>
<path d="M108.793 28.4745L133.023 19.5029L111.789 43.6871H95.5312L108.793 28.4745Z" fill="#F8B0A9"/>
<path d="M59.1412 0H72.2491L68.6742 3.90067L65.0994 7.80134H52.3887L59.1412 0Z" fill="#F8B0A9"/>
<path d="M102.437 19.5029H133.069L109.19 28.8645H94.0957L102.437 19.5029Z" fill="#F8B0A9"/>
<path d="M115.546 0H150.501L143.748 7.80134H108.396L115.546 0Z" fill="#F8B0A9"/>
<path d="M99.0097 0H115.545L77.0158 43.6875H60.333L99.0097 0Z" fill="#FDF4F3"/>
</svg>
