<svg width="25" height="24" viewBox="0 0 25 24" fill="none" xmlns="http://www.w3.org/2000/svg">
<path d="M22.25 16.5C22.25 19.6756 19.6756 22.25 16.5 22.25H8.5C5.32436 22.25 2.75 19.6756 2.75 16.5V9.25H22.25V16.5ZM7 15.75C6.58579 15.75 6.25 16.0858 6.25 16.5C6.25 16.9142 6.58579 17.25 7 17.25H8C8.41421 17.25 8.75 16.9142 8.75 16.5C8.75 16.0858 8.41421 15.75 8 15.75H7ZM12 15.75C11.5858 15.75 11.25 16.0858 11.25 16.5C11.25 16.9142 11.5858 17.25 12 17.25H13C13.4142 17.25 13.75 16.9142 13.75 16.5C13.75 16.0858 13.4142 15.75 13 15.75H12ZM17 15.75C16.5858 15.75 16.25 16.0858 16.25 16.5C16.25 16.9142 16.5858 17.25 17 17.25H18C18.4142 17.25 18.75 16.9142 18.75 16.5C18.75 16.0858 18.4142 15.75 18 15.75H17ZM7 11.75C6.58579 11.75 6.25 12.0858 6.25 12.5C6.25 12.9142 6.58579 13.25 7 13.25H8C8.41421 13.25 8.75 12.9142 8.75 12.5C8.75 12.0858 8.41421 11.75 8 11.75H7ZM12 11.75C11.5858 11.75 11.25 12.0858 11.25 12.5C11.25 12.9142 11.5858 13.25 12 13.25H13C13.4142 13.25 13.75 12.9142 13.75 12.5C13.75 12.0858 13.4142 11.75 13 11.75H12ZM17 11.75C16.5858 11.75 16.25 12.0858 16.25 12.5C16.25 12.9142 16.5858 13.25 17 13.25H18C18.4142 13.25 18.75 12.9142 18.75 12.5C18.75 12.0858 18.4142 11.75 18 11.75H17ZM16.25 5C16.25 5.41421 16.5858 5.75 17 5.75C17.4142 5.75 17.75 5.41421 17.75 5V2.88672C20.0859 3.40471 21.8866 5.34343 22.2002 7.75H2.7998C3.11336 5.34343 4.91412 3.40471 7.25 2.88672V5C7.25 5.41421 7.58579 5.75 8 5.75C8.41421 5.75 8.75 5.41421 8.75 5V2.75H16.25V5ZM8 1.25C8.41421 1.25 8.75 1.58579 8.75 2V2.75H8.5C8.07066 2.75 7.65243 2.79748 7.25 2.88672V2C7.25 1.58579 7.58579 1.25 8 1.25ZM17 1.25C17.4142 1.25 17.75 1.58579 17.75 2V2.88672C17.3476 2.79748 16.9293 2.75 16.5 2.75H16.25V2C16.25 1.58579 16.5858 1.25 17 1.25Z" fill="#E65B4D"/>
</svg>
