<svg width="19" height="22" viewBox="0 0 19 22" fill="none" xmlns="http://www.w3.org/2000/svg">
<path fill-rule="evenodd" clip-rule="evenodd" d="M0.75 5C0.75 2.37665 2.87665 0.25 5.5 0.25H13.5C16.1234 0.25 18.25 2.37665 18.25 5V17C18.25 19.6234 16.1234 21.75 13.5 21.75H5.5C2.87665 21.75 0.75 19.6234 0.75 17V5ZM5.5 5.25C5.08579 5.25 4.75 5.58579 4.75 6C4.75 6.41421 5.08579 6.75 5.5 6.75H13.5C13.9142 6.75 14.25 6.41421 14.25 6C14.25 5.58579 13.9142 5.25 13.5 5.25H5.5ZM4.75 11C4.75 10.5858 5.08579 10.25 5.5 10.25H13.5C13.9142 10.25 14.25 10.5858 14.25 11C14.25 11.4142 13.9142 11.75 13.5 11.75H5.5C5.08579 11.75 4.75 11.4142 4.75 11ZM5.5 15.25C5.08579 15.25 4.75 15.5858 4.75 16C4.75 16.4142 5.08579 16.75 5.5 16.75H9.5C9.91421 16.75 10.25 16.4142 10.25 16C10.25 15.5858 9.91421 15.25 9.5 15.25H5.5Z" fill="#E65B4D"/>
</svg>
