<svg width="25" height="24" viewBox="0 0 25 24" fill="none" xmlns="http://www.w3.org/2000/svg">
<path d="M16.9277 4.27909C20.3127 3.9406 23.25 6.59895 23.25 10.0008V15.9998C23.25 20.3441 17.5727 21.9909 15.248 18.3211C14.1642 16.6098 11.6881 16.5524 10.5264 18.2117L10.2422 18.618C7.62509 22.3567 1.75019 20.5048 1.75 15.9412V10.0008C1.75 6.59895 4.68732 3.9406 8.07227 4.27909L11.9775 4.66972C12.3249 4.70446 12.6751 4.70446 13.0225 4.66972L16.9277 4.27909ZM8.5 8.72538C8.08579 8.72538 7.75 9.06117 7.75 9.47538V10.7254H6.5C6.08579 10.7254 5.75 11.0612 5.75 11.4754C5.75 11.8896 6.08579 12.2254 6.5 12.2254H7.75V13.4754C7.75 13.8896 8.08579 14.2254 8.5 14.2254C8.91421 14.2254 9.25 13.8896 9.25 13.4754V12.2254H10.5C10.9142 12.2254 11.25 11.8896 11.25 11.4754C11.25 11.0612 10.9142 10.7254 10.5 10.7254H9.25V9.47538C9.25 9.06117 8.91421 8.72538 8.5 8.72538ZM16.5 11.9754C15.9477 11.9754 15.5 12.4231 15.5 12.9754C15.5 13.5277 15.9477 13.9754 16.5 13.9754C17.0523 13.9754 17.5 13.5277 17.5 12.9754C17.5 12.4231 17.0523 11.9754 16.5 11.9754ZM18.5 8.97538C17.9477 8.97538 17.5 9.4231 17.5 9.97538C17.5 10.5277 17.9477 10.9754 18.5 10.9754C19.0523 10.9754 19.5 10.5277 19.5 9.97538C19.5 9.4231 19.0523 8.97538 18.5 8.97538Z" fill="#E65B4D"/>
</svg>
