<svg width="25" height="24" viewBox="0 0 25 24" fill="none" xmlns="http://www.w3.org/2000/svg">
<path d="M14.75 16.952V4.05398C14.217 4.31398 13.694 4.72398 13.1 5.21598L12.939 5.34998C12.193 5.96998 11.315 6.70198 10.25 7.05198V19.951C10.784 19.69 11.306 19.28 11.9 18.789L12.061 18.654C12.807 18.034 13.685 17.303 14.75 16.952ZM18.842 3.00598C19.149 3.12898 19.428 3.24098 19.694 3.33198L19.731 3.34498C20.194 3.50498 20.601 3.64498 20.923 3.80098C21.274 3.96999 21.591 4.18598 21.833 4.53298C22.073 4.87698 22.167 5.25098 22.21 5.63998C22.25 6.00298 22.25 6.44398 22.25 6.95098V15.455C22.25 16.181 22.25 16.789 22.196 17.268C22.141 17.763 22.017 18.249 21.67 18.643C21.4618 18.8772 21.2079 19.0664 20.924 19.199C20.389 19.446 19.843 19.452 19.35 19.367C18.867 19.284 18.39 19.104 17.97 18.93C17.83 18.872 17.696 18.8157 17.568 18.761C17.288 18.642 17.032 18.533 16.769 18.441C16.395 18.308 16.102 18.247 15.867 18.255C15.7202 18.259 15.5744 18.2791 15.432 18.315C14.565 18.528 13.833 19.134 12.928 19.885L12.856 19.944C11.982 20.668 10.923 21.532 9.558 21.721C9.13 21.781 8.583 21.743 8.031 21.659C7.42011 21.5621 6.81691 21.4217 6.226 21.239C5.62442 21.0585 5.04118 20.8218 4.484 20.532C3.979 20.263 3.476 19.915 3.167 19.472C2.927 19.127 2.833 18.753 2.79 18.364C2.75 18.001 2.75 17.561 2.75 17.053V8.54898C2.75 7.82298 2.75 7.21498 2.804 6.73598C2.859 6.24098 2.983 5.75498 3.33 5.36098C3.538 5.12598 3.791 4.93598 4.076 4.80498C4.611 4.55798 5.157 4.55198 5.65 4.63698C6.133 4.72098 6.61 4.89998 7.03 5.07398C7.17 5.13198 7.304 5.18832 7.432 5.24298C7.712 5.36298 7.968 5.47098 8.231 5.56298C8.606 5.69598 8.898 5.75798 9.133 5.74898C9.27967 5.74365 9.42467 5.72365 9.568 5.68898C10.435 5.47598 11.167 4.86998 12.072 4.11898L12.144 4.05998C13.018 3.33698 14.077 2.47298 15.442 2.28298C16.26 2.16998 17.069 2.36498 17.768 2.59998C18.122 2.71998 18.47 2.85798 18.79 2.98598L18.842 3.00598Z" fill="#E65B4D"/>
</svg>
