<svg width="25" height="24" viewBox="0 0 25 24" fill="none" xmlns="http://www.w3.org/2000/svg">
<path d="M9.5 6.54095V20.7959M15.5 3.18095V17.4359M3.5 8.59295C3.5 7.06595 3.5 6.30295 3.893 5.85795C4.032 5.69895 4.201 5.57295 4.39 5.48595C5.806 4.83295 7.662 6.55195 9.16 6.49895C9.358 6.49162 9.55367 6.46428 9.747 6.41695C11.931 5.88195 13.299 3.33695 15.545 3.02695C16.832 2.84695 18.245 3.62495 19.449 4.04095C20.439 4.38295 20.934 4.55395 21.217 4.96095C21.5 5.36795 21.5 5.90995 21.5 6.98995V15.4119C21.5 16.9379 21.5 17.7019 21.107 18.1469C20.969 18.3039 20.7997 18.4303 20.61 18.5179C19.194 19.1709 17.338 17.4529 15.84 17.5059C15.6421 17.5135 15.4455 17.5406 15.253 17.5869C13.069 18.1219 11.701 20.6669 9.455 20.9779C8.174 21.1559 4.608 20.2279 3.783 19.0429C3.5 18.6359 3.5 18.0959 3.5 17.0139V8.59295Z" stroke="#2A2A2E" stroke-width="1.5" stroke-linecap="round" stroke-linejoin="round"/>
</svg>
