<svg width="20" height="20" viewBox="0 0 20 20" fill="none" xmlns="http://www.w3.org/2000/svg">
<path d="M10 20C15.5228 20 20 15.5228 20 10C20 4.47715 15.5228 0 10 0C4.47715 0 0 4.47715 0 10C0 15.5228 4.47715 20 10 20ZM11.8496 13.8105C11.5677 14.114 11.0926 14.1314 10.7891 13.8496L8.0791 11.332C7.33349 10.6397 7.33349 9.45993 8.0791 8.76758L10.7891 6.25C11.0926 5.96818 11.5677 5.98564 11.8496 6.28906C12.1314 6.59256 12.114 7.06774 11.8105 7.34961L9.09961 9.86621C8.99309 9.96512 8.99309 10.1345 9.09961 10.2334L11.8105 12.75C12.114 13.0319 12.1314 13.5071 11.8496 13.8105Z" fill="#2A2A2E"/>
</svg>
