<svg width="22" height="22" viewBox="0 0 22 22" fill="none" xmlns="http://www.w3.org/2000/svg">
<path d="M16 0.25C19.1756 0.25 21.75 2.82436 21.75 6V16C21.75 19.1756 19.1756 21.75 16 21.75H6C2.82436 21.75 0.25 19.1756 0.25 16V6C0.25 2.82436 2.82436 0.25 6 0.25H16ZM15.0303 7.96973C14.7375 7.67692 14.2626 7.6771 13.9697 7.96973L10.5 11.4395L9.03027 9.96973C8.73736 9.67705 8.26255 9.6769 7.96973 9.96973C7.6769 10.2625 7.67705 10.7374 7.96973 11.0303L9.96973 13.0303C10.2626 13.3232 10.7374 13.3232 11.0303 13.0303L15.0303 9.03027C15.3229 8.73736 15.3231 8.26253 15.0303 7.96973Z" fill="#E65B4D"/>
</svg>
