<svg width="18" height="22" viewBox="0 0 18 22" fill="none" xmlns="http://www.w3.org/2000/svg">
<path d="M9 0.75C13.8251 0.75 17.75 4.62314 17.75 9.41699C17.7499 12.3982 16.0115 15.3405 14.1689 17.4824C13.2364 18.5664 12.2461 19.482 11.373 20.1328C10.9374 20.4576 10.5186 20.7256 10.1406 20.916C9.78618 21.0945 9.38124 21.25 9 21.25C8.61876 21.25 8.21382 21.0945 7.85938 20.916C7.48137 20.7256 7.06263 20.4576 6.62695 20.1328C5.75392 19.482 4.76357 18.5664 3.83105 17.4824C1.98855 15.3405 0.250126 12.3982 0.25 9.41699C0.25 4.62314 4.17493 0.75 9 0.75ZM9 6C7.34315 6 6 7.34315 6 9C6 10.6569 7.34315 12 9 12C10.6569 12 12 10.6569 12 9C12 7.34315 10.6569 6 9 6Z" fill="#A1A1AA"/>
</svg>
