<svg width="47" height="34" viewBox="0 0 47 34" fill="none" xmlns="http://www.w3.org/2000/svg">
<g filter="url(#filter0_d_936_5299)">
<rect x="6.5" y="5.5" width="34" height="15" rx="7.5" fill="url(#paint0_linear_936_5299)" shape-rendering="crispEdges"/>
<path d="M18.32 8.43V16.98H17.38V8.43H18.32ZM16.64 8.61V16.56H15.73V13.99H14.42C14.2467 14.23 14.02 14.42 13.74 14.56C13.4667 14.6933 13.16 14.76 12.82 14.76C12.44 14.76 12.1 14.6767 11.8 14.51C11.5067 14.3367 11.2767 14.1 11.11 13.8C10.9433 13.5 10.86 13.1567 10.86 12.77C10.86 12.3833 10.9433 12.04 11.11 11.74C11.2767 11.4333 11.5067 11.1967 11.8 11.03C12.1 10.8567 12.44 10.77 12.82 10.77C13.3733 10.77 13.8333 10.9433 14.2 11.29H15.73V8.61H16.64ZM12.34 9.63V8.58H13.31V9.63H14.91V10.43H10.74V9.63H12.34ZM12.82 13.94C13.1333 13.94 13.39 13.8333 13.59 13.62C13.79 13.4 13.89 13.1167 13.89 12.77C13.89 12.4233 13.79 12.14 13.59 11.92C13.39 11.7 13.1333 11.59 12.82 11.59C12.5067 11.59 12.25 11.7 12.05 11.92C11.8567 12.1333 11.76 12.4167 11.76 12.77C11.76 13.1167 11.8567 13.4 12.05 13.62C12.25 13.8333 12.5067 13.94 12.82 13.94ZM14.69 12.08C14.7567 12.3133 14.79 12.5433 14.79 12.77C14.79 12.93 14.7767 13.0733 14.75 13.2H15.73V12.08H14.69ZM24.7542 15.31H19.3742V14.51H21.5542V13.69C21.0609 13.59 20.6642 13.3567 20.3642 12.99C20.0709 12.6233 19.9242 12.18 19.9242 11.66C19.9242 11.2 20.0942 10.7767 20.4342 10.39H19.5542V9.58H21.6142V8.52H22.5142V9.58H24.5742V10.39H23.6842C24.0242 10.7633 24.1942 11.1867 24.1942 11.66C24.1942 12.1867 24.0409 12.6367 23.7342 13.01C23.4342 13.3767 23.0342 13.6067 22.5342 13.7V14.51H24.7542V15.31ZM22.0542 12.92C22.4209 12.92 22.7176 12.8033 22.9442 12.57C23.1709 12.3367 23.2842 12.0333 23.2842 11.66C23.2842 11.2867 23.1709 10.9867 22.9442 10.76C22.7176 10.5267 22.4209 10.41 22.0542 10.41C21.6876 10.41 21.3909 10.5267 21.1642 10.76C20.9376 10.9867 20.8242 11.2867 20.8242 11.66C20.8242 12.0333 20.9376 12.3367 21.1642 12.57C21.3909 12.8033 21.6876 12.92 22.0542 12.92ZM25.2642 8.43H26.2442V12.12H27.5242V12.95H26.2442V16.98H25.2642V8.43ZM30.5484 11.1V12.84H33.1884V13.64H27.9284V12.84H29.5784V11.1H30.5484ZM34.8784 8.43V11.24H36.0684V12.05H34.8784V14.73H33.8884V8.43H34.8784ZM30.3984 14.48V16.3H35.2284V17.1H29.4284V14.48H30.3984ZM32.7484 12.12H31.7684V9.75H28.3984V8.95H32.7484V12.12Z" fill="white"/>
</g>
<g filter="url(#filter1_d_936_5299)">
<path d="M24.366 25.5C23.9811 26.1667 23.0189 26.1667 22.634 25.5L19.6029 20.25C19.218 19.5833 19.6991 18.75 20.4689 18.75L26.5311 18.75C27.3009 18.75 27.782 19.5833 27.3971 20.25L24.366 25.5Z" fill="#D33E2F"/>
</g>
<defs>
<filter id="filter0_d_936_5299" x="2.5" y="2.5" width="42" height="23" filterUnits="userSpaceOnUse" color-interpolation-filters="sRGB">
<feFlood flood-opacity="0" result="BackgroundImageFix"/>
<feColorMatrix in="SourceAlpha" type="matrix" values="0 0 0 0 0 0 0 0 0 0 0 0 0 0 0 0 0 0 127 0" result="hardAlpha"/>
<feOffset dy="1"/>
<feGaussianBlur stdDeviation="2"/>
<feComposite in2="hardAlpha" operator="out"/>
<feColorMatrix type="matrix" values="0 0 0 0 0 0 0 0 0 0 0 0 0 0 0 0 0 0 0.15 0"/>
<feBlend mode="normal" in2="BackgroundImageFix" result="effect1_dropShadow_936_5299"/>
<feBlend mode="normal" in="SourceGraphic" in2="effect1_dropShadow_936_5299" result="shape"/>
</filter>
<filter id="filter1_d_936_5299" x="15.4673" y="15.75" width="16.0654" height="15.25" filterUnits="userSpaceOnUse" color-interpolation-filters="sRGB">
<feFlood flood-opacity="0" result="BackgroundImageFix"/>
<feColorMatrix in="SourceAlpha" type="matrix" values="0 0 0 0 0 0 0 0 0 0 0 0 0 0 0 0 0 0 127 0" result="hardAlpha"/>
<feOffset dy="1"/>
<feGaussianBlur stdDeviation="2"/>
<feComposite in2="hardAlpha" operator="out"/>
<feColorMatrix type="matrix" values="0 0 0 0 0 0 0 0 0 0 0 0 0 0 0 0 0 0 0.15 0"/>
<feBlend mode="normal" in2="BackgroundImageFix" result="effect1_dropShadow_936_5299"/>
<feBlend mode="normal" in="SourceGraphic" in2="effect1_dropShadow_936_5299" result="shape"/>
</filter>
<linearGradient id="paint0_linear_936_5299" x1="23.5" y1="14.6667" x2="23.5" y2="22.1667" gradientUnits="userSpaceOnUse">
<stop stop-color="#E65B4D"/>
<stop offset="1" stop-color="#D33E2F"/>
</linearGradient>
</defs>
</svg>
