<svg width="24" height="24" viewBox="0 0 24 24" fill="none" xmlns="http://www.w3.org/2000/svg">
<path d="M17.5279 2.19884C17.9708 2.02467 18.4483 1.96359 18.9194 2.02087C19.3904 2.07815 19.8408 2.25207 20.2317 2.52764C20.6227 2.80321 20.9424 3.17216 21.1633 3.60269C21.3843 4.03321 21.4998 4.51239 21.5 4.99892V16.9952C21.4997 17.4672 21.3908 17.9324 21.1823 18.3531C20.9737 18.7737 20.6713 19.138 20.2997 19.4163C19.9281 19.6946 19.4977 19.879 19.0435 19.9546C18.5893 20.0302 18.1241 19.9948 17.6858 19.8513L13.6649 18.5353C13.5324 19.5413 13.0319 20.4581 12.2649 21.0997C11.4979 21.7414 10.5217 22.0599 9.53421 21.9907C8.54672 21.9215 7.62183 21.4698 6.94699 20.7272C6.27215 19.9845 5.89787 19.0065 5.9 17.9913V15.9972L4.0358 15.3872C3.44515 15.1939 2.92966 14.8131 2.56374 14.2997C2.19783 13.7864 2.00042 13.167 2 12.5311V10.3671C1.99984 9.75997 2.17925 9.16712 2.51453 8.66682C2.84981 8.16652 3.32518 7.78232 3.87785 7.56499L17.5279 2.19884ZM7.85 16.6352V17.9913C7.85 18.5217 8.05545 19.0304 8.42114 19.4055C8.78684 19.7806 9.28283 19.9913 9.8 19.9913C10.3172 19.9913 10.8132 19.7806 11.1789 19.4055C11.5446 19.0304 11.75 18.5217 11.75 17.9913V17.9113L7.85 16.6352Z" fill="#E65B4D"/>
</svg>
