<svg width="67" height="14" viewBox="0 0 67 14" fill="none" xmlns="http://www.w3.org/2000/svg">
<mask id="path-1-outside-1_1291_1683" maskUnits="userSpaceOnUse" x="0" y="-0.294434" width="67" height="14" fill="black">
<rect fill="white" y="-0.294434" width="67" height="14"/>
<path d="M5.71019 0.705566C9.79123 0.705566 12.2228 3.14691 12.2228 7.08222C12.2228 11.0357 9.74021 13.0945 6.45838 13.0945C6.03327 13.0945 5.43812 13.0945 4.87698 13.0945C4.62192 13.0945 3.89073 13.0945 3.09153 13.0945C2.9895 13.0945 2.88748 13.0945 2.76845 13.0945C1.98625 13.0945 1.25506 13.0945 1 13.0945C1 13.0763 1 13.0398 1 13.0034C2.05427 13.0034 2.39435 12.0742 2.39435 11.2544C2.39435 11.1815 2.39435 7.42838 2.39435 5.69758C2.39435 4.03965 2.39435 2.60034 2.39435 2.54569C2.39435 1.72583 2.05427 0.796661 1 0.796661C1 0.760223 1 0.723785 1 0.705566C1.25506 0.705566 1.98625 0.705566 2.76845 0.705566C2.87047 0.705566 2.9895 0.705566 3.09153 0.705566C3.32959 0.705566 3.55065 0.705566 3.7547 0.705566C3.78871 0.705566 3.82271 0.705566 3.83972 0.705566C4.34985 0.705566 5.71019 0.705566 5.71019 0.705566ZM6.56041 12.8759C8.03978 12.8759 10.7605 11.7098 10.7605 7.08222C10.7605 4.82306 9.55317 0.887756 5.94825 0.887756C4.5709 0.887756 4.23082 0.887756 3.46562 0.887756C3.46562 0.960633 3.46562 4.11252 3.46562 5.84333C3.46562 7.28263 3.46562 9.88795 3.46562 10.8718C3.49963 11.473 3.80571 12.8759 6.56041 12.8759ZM14.1932 0.705566C14.3123 0.705566 14.4143 0.705566 14.5163 0.705566C15.3155 0.705566 16.0467 0.705566 16.3018 0.705566C16.3018 0.723785 16.3018 0.760223 16.3018 0.796661C15.2475 0.796661 14.8904 1.72583 14.8904 2.54569C14.8904 2.61856 14.8904 4.11252 14.8904 5.84333C14.8904 7.62879 14.8904 11.1815 14.8904 11.2544C14.8904 12.0742 15.2475 13.0034 16.3018 13.0034C16.3018 13.0398 16.3018 13.0763 16.3018 13.0945C16.0467 13.0945 15.3155 13.0945 14.5163 13.0945C14.4143 13.0945 14.3123 13.0945 14.1932 13.0945C13.411 13.0945 12.6799 13.0945 12.4248 13.0945C12.4248 13.0763 12.4248 13.0398 12.4248 13.0034C13.4791 13.0034 13.8191 12.0742 13.8191 11.2544C13.8191 11.1815 13.8191 7.42838 13.8191 5.69758C13.8191 4.03965 13.8191 2.60034 13.8191 2.54569C13.8191 1.72583 13.4791 0.796661 12.4248 0.796661C12.4248 0.760223 12.4248 0.723785 12.4248 0.705566C12.6799 0.705566 13.411 0.705566 14.1932 0.705566ZM21.5485 6.7725C21.5485 8.37577 25.3065 12.3657 27.0919 13.0945C26.5478 13.0945 25.2214 13.0945 24.8984 13.0945C23.385 12.3475 21.3445 9.41425 21.3445 6.82715C21.3445 6.09839 21.5485 5.55182 22.3477 4.9506C23.385 3.29267 24.3032 3.67527 24.3032 2.67322C24.3032 1.70761 23.2149 0.887756 21.9396 0.887756C20.9704 1.10638 20.0351 1.05173 19.457 0.978852C19.457 1.48898 19.457 3.98499 19.457 5.58826L19.508 5.57004C19.508 7.30085 19.457 11.1815 19.457 11.2544C19.457 12.056 19.8141 13.0034 20.8683 13.0034C20.8683 13.0216 20.8683 13.0581 20.8683 13.0945C20.6133 13.0945 19.8821 13.0945 19.0829 13.0945C18.9809 13.0945 18.8788 13.0945 18.7598 13.0945C17.9776 13.0945 17.2464 13.0945 16.9914 13.0945C16.9914 13.0581 16.9914 13.0216 16.9914 13.0034C18.0456 13.0034 18.4027 12.056 18.4027 11.2544C18.4027 11.1815 18.4027 7.61057 18.4027 5.84333C18.4027 5.78867 18.4027 5.73401 18.4027 5.69758C18.4027 4.02143 18.4027 2.60034 18.4027 2.52747C18.4027 1.72583 18.0456 0.778441 16.9914 0.778441C16.9914 0.760223 16.9914 0.723785 16.9914 0.705566C17.2464 0.705566 17.9776 0.705566 18.7598 0.705566C18.8278 0.705566 18.8788 0.705566 18.9298 0.705566C18.9298 0.705566 18.9979 0.705566 19.0829 0.705566C19.338 0.705566 19.7801 0.705566 19.9501 0.705566C20.0351 0.705566 20.4092 0.705566 20.8683 0.705566C21.5655 0.705566 22.4667 0.705566 22.7728 0.705566C24.6263 0.705566 25.5955 1.5983 25.5955 2.72788C25.5955 3.45664 25.2555 4.11252 24.2522 4.76841C23.385 5.35141 21.5485 5.95264 21.5485 6.7725ZM34.2114 0.705566C34.4835 0.705566 36.9491 0.705566 37.6803 0.705566C37.6803 0.742004 37.6803 0.760223 37.6803 0.796661C36.9661 0.905976 36.4049 1.63474 35.8608 3.25623C35.3507 4.78663 33.1231 11.3455 32.766 12.4022C32.9191 12.8394 33.0041 13.0945 33.0041 13.0945H31.7118C31.7118 13.0945 29.2121 5.55182 28.3449 2.96472C27.9538 1.78049 27.3076 0.796661 26.2534 0.796661C26.2534 0.778441 26.2534 0.742004 26.2534 0.705566C26.4574 0.705566 30.9466 0.705566 31.1676 0.705566C31.1676 0.742004 31.1846 0.778441 31.1846 0.796661C30.1304 0.796661 29.1951 1.56186 29.7563 3.27445C30.3684 5.15101 31.9498 9.92439 32.647 12.056C33.0041 10.7442 34.3984 5.40607 34.8406 3.74814C35.3677 1.70761 35.0276 1.06995 34.2114 0.796661C34.2114 0.778441 34.2114 0.742004 34.2114 0.705566ZM44.4177 11.054C44.6388 11.8192 45.1319 12.5479 46.2032 13.0034C46.2032 13.0216 46.2032 13.0581 46.2032 13.0945C45.8461 13.0945 45.404 13.0945 44.9278 13.0945H43.6355C43.6015 13.0945 43.5675 13.0945 43.5505 13.0945C42.7513 13.0945 42.2752 13.0945 41.697 13.0945C41.697 13.0581 41.697 13.0216 41.697 13.0034C42.9043 12.5661 43.2784 11.8009 43.0234 10.6531L42.8363 9.90617C42.5642 9.56001 41.527 8.23002 41.0509 8.13892C40.5067 8.02961 40.2177 8.23002 39.9286 9.76042C39.6565 11.309 39.8776 13.1856 38.2452 13.2767C36.6297 13.3678 35.2184 10.6714 36.4427 8.01139C37.752 5.18744 39.4184 3.91211 39.8436 2.83719C40.0816 2.25418 40.2857 1.85336 40.4217 1.61652C40.1326 1.28857 39.7585 1.01529 39.2484 0.778441C39.2484 0.760223 39.2484 0.723785 39.2484 0.705566C39.6055 0.705566 40.0476 0.705566 40.5237 0.705566C40.8128 0.705566 41.1189 0.705566 41.425 0.705566C41.476 0.705566 41.51 0.705566 41.544 0.705566H41.782H41.8161C41.8501 0.705566 41.8841 0.705566 41.9011 0.705566C42.7003 0.705566 43.1764 0.705566 43.7546 0.705566C43.7546 0.723785 43.7546 0.760223 43.7546 0.778441C42.4962 0.887757 41.9861 1.1246 42.4282 3.11048L44.4177 11.054ZM40.7618 8.01139C41.561 7.90208 42.2242 8.5033 42.5983 8.99522L40.9999 2.63678C40.9148 2.3635 40.7958 2.10843 40.6258 1.85336C40.3027 2.50925 39.4525 4.1854 38.7043 5.05991C37.769 6.13483 37.0719 8.66727 37.0889 10.6349C37.1059 12.5479 37.9051 13.1309 38.4832 13.1309C38.9423 13.1309 39.1804 12.1471 39.2144 11.4183C39.2484 10.143 39.5545 8.17536 40.7618 8.01139ZM55.3797 0.705566C54.9715 1.30679 54.2914 2.3635 54.8015 4.71375C55.2776 7.00934 55.6517 8.79481 55.4477 10.2341C55.2266 11.892 54.4954 13.2949 53.1861 13.2949C51.4176 13.2949 51.0776 11.5277 50.2614 8.01139C49.8363 6.11661 49.4111 4.53156 48.85 2.10843C48.697 1.43433 48.5609 0.905976 48.3229 0.905976C48.1528 0.905976 48.2549 0.905976 48.0168 0.905976C48.0168 0.960633 48.0168 4.11252 48.0168 5.84333C48.0168 7.61057 48.0168 11.1997 48.0168 11.2544C48.0168 12.0742 48.3569 13.0034 49.4281 13.0034C49.4281 13.0398 49.4281 13.0763 49.4281 13.0945C49.1901 13.0945 48.5949 13.0945 47.8978 13.0945C47.8808 13.0945 47.8808 13.0945 47.8638 13.0945C47.1666 13.0945 46.5714 13.0945 46.3334 13.0945C46.3334 13.0763 46.3334 13.0398 46.3334 13.0034C47.4046 13.0034 47.7447 12.0742 47.7447 11.2544C47.7447 8.35755 47.7447 5.44251 47.7447 2.54569C47.7447 1.72583 47.4046 0.796661 46.3334 0.796661C46.3334 0.760223 46.3334 0.742004 46.3334 0.705566C47.9658 0.705566 48.0508 0.705566 48.1358 0.705566C48.2719 0.705566 48.5099 0.705566 48.918 0.705566C49.8873 0.705566 49.9893 1.61652 50.2614 2.76431C50.6695 4.49512 51.1456 6.33524 51.6557 8.44865C52.2339 10.8353 52.676 13.0945 53.3391 13.0945C54.3254 13.0945 54.7505 11.8738 54.7165 10.2341C54.6825 8.2118 53.8663 6.3899 53.5092 4.82306C53.0331 2.655 53.2711 1.43433 53.6622 0.705566C54.2914 0.705566 54.8355 0.705566 55.3797 0.705566ZM64.9589 11.054C65.1799 11.8192 65.673 12.5479 66.7443 13.0034C66.7443 13.0216 66.7443 13.0581 66.7443 13.0945C66.3872 13.0945 65.9451 13.0945 65.469 13.0945H64.1767C64.1427 13.0945 64.1086 13.0945 64.0916 13.0945C63.2924 13.0945 62.8163 13.0945 62.2382 13.0945C62.2382 13.0581 62.2382 13.0216 62.2382 13.0034C63.4455 12.5661 63.8196 11.8009 63.5645 10.6531L63.3775 9.90617C63.1054 9.56001 62.0681 8.23002 61.592 8.13892C61.0479 8.02961 60.7588 8.23002 60.4697 9.76042C60.1977 11.309 60.4187 13.1856 58.7863 13.2767C57.1711 13.3678 55.7597 10.6714 56.984 8.01139C58.2932 5.18744 59.9596 3.91211 60.3847 2.83719C60.6228 2.25418 60.8268 1.85336 60.9628 1.61652C60.6738 1.28857 60.2997 1.01529 59.7896 0.778441C59.7896 0.760223 59.7896 0.723785 59.7896 0.705566C60.1466 0.705566 60.5888 0.705566 61.0649 0.705566C61.3539 0.705566 61.66 0.705566 61.9661 0.705566C62.0171 0.705566 62.0511 0.705566 62.0851 0.705566H62.3232H62.3572C62.3912 0.705566 62.4252 0.705566 62.4422 0.705566C63.2414 0.705566 63.7175 0.705566 64.2957 0.705566C64.2957 0.723785 64.2957 0.760223 64.2957 0.778441C63.0374 0.887757 62.5272 1.1246 62.9694 3.11048L64.9589 11.054ZM61.3029 8.01139C62.1021 7.90208 62.7653 8.5033 63.1394 8.99522L61.541 2.63678C61.456 2.3635 61.3369 2.10843 61.1669 1.85336C60.8438 2.50925 59.9936 4.1854 59.2454 5.05991C58.3102 6.13483 57.613 8.66727 57.63 10.6349C57.647 12.5479 58.4462 13.1309 59.0244 13.1309C59.4835 13.1309 59.7215 12.1471 59.7555 11.4183C59.7896 10.143 60.0956 8.17536 61.3029 8.01139Z"/>
</mask>
<path d="M5.71019 0.705566C9.79123 0.705566 12.2228 3.14691 12.2228 7.08222C12.2228 11.0357 9.74021 13.0945 6.45838 13.0945C6.03327 13.0945 5.43812 13.0945 4.87698 13.0945C4.62192 13.0945 3.89073 13.0945 3.09153 13.0945C2.9895 13.0945 2.88748 13.0945 2.76845 13.0945C1.98625 13.0945 1.25506 13.0945 1 13.0945C1 13.0763 1 13.0398 1 13.0034C2.05427 13.0034 2.39435 12.0742 2.39435 11.2544C2.39435 11.1815 2.39435 7.42838 2.39435 5.69758C2.39435 4.03965 2.39435 2.60034 2.39435 2.54569C2.39435 1.72583 2.05427 0.796661 1 0.796661C1 0.760223 1 0.723785 1 0.705566C1.25506 0.705566 1.98625 0.705566 2.76845 0.705566C2.87047 0.705566 2.9895 0.705566 3.09153 0.705566C3.32959 0.705566 3.55065 0.705566 3.7547 0.705566C3.78871 0.705566 3.82271 0.705566 3.83972 0.705566C4.34985 0.705566 5.71019 0.705566 5.71019 0.705566ZM6.56041 12.8759C8.03978 12.8759 10.7605 11.7098 10.7605 7.08222C10.7605 4.82306 9.55317 0.887756 5.94825 0.887756C4.5709 0.887756 4.23082 0.887756 3.46562 0.887756C3.46562 0.960633 3.46562 4.11252 3.46562 5.84333C3.46562 7.28263 3.46562 9.88795 3.46562 10.8718C3.49963 11.473 3.80571 12.8759 6.56041 12.8759ZM14.1932 0.705566C14.3123 0.705566 14.4143 0.705566 14.5163 0.705566C15.3155 0.705566 16.0467 0.705566 16.3018 0.705566C16.3018 0.723785 16.3018 0.760223 16.3018 0.796661C15.2475 0.796661 14.8904 1.72583 14.8904 2.54569C14.8904 2.61856 14.8904 4.11252 14.8904 5.84333C14.8904 7.62879 14.8904 11.1815 14.8904 11.2544C14.8904 12.0742 15.2475 13.0034 16.3018 13.0034C16.3018 13.0398 16.3018 13.0763 16.3018 13.0945C16.0467 13.0945 15.3155 13.0945 14.5163 13.0945C14.4143 13.0945 14.3123 13.0945 14.1932 13.0945C13.411 13.0945 12.6799 13.0945 12.4248 13.0945C12.4248 13.0763 12.4248 13.0398 12.4248 13.0034C13.4791 13.0034 13.8191 12.0742 13.8191 11.2544C13.8191 11.1815 13.8191 7.42838 13.8191 5.69758C13.8191 4.03965 13.8191 2.60034 13.8191 2.54569C13.8191 1.72583 13.4791 0.796661 12.4248 0.796661C12.4248 0.760223 12.4248 0.723785 12.4248 0.705566C12.6799 0.705566 13.411 0.705566 14.1932 0.705566ZM21.5485 6.7725C21.5485 8.37577 25.3065 12.3657 27.0919 13.0945C26.5478 13.0945 25.2214 13.0945 24.8984 13.0945C23.385 12.3475 21.3445 9.41425 21.3445 6.82715C21.3445 6.09839 21.5485 5.55182 22.3477 4.9506C23.385 3.29267 24.3032 3.67527 24.3032 2.67322C24.3032 1.70761 23.2149 0.887756 21.9396 0.887756C20.9704 1.10638 20.0351 1.05173 19.457 0.978852C19.457 1.48898 19.457 3.98499 19.457 5.58826L19.508 5.57004C19.508 7.30085 19.457 11.1815 19.457 11.2544C19.457 12.056 19.8141 13.0034 20.8683 13.0034C20.8683 13.0216 20.8683 13.0581 20.8683 13.0945C20.6133 13.0945 19.8821 13.0945 19.0829 13.0945C18.9809 13.0945 18.8788 13.0945 18.7598 13.0945C17.9776 13.0945 17.2464 13.0945 16.9914 13.0945C16.9914 13.0581 16.9914 13.0216 16.9914 13.0034C18.0456 13.0034 18.4027 12.056 18.4027 11.2544C18.4027 11.1815 18.4027 7.61057 18.4027 5.84333C18.4027 5.78867 18.4027 5.73401 18.4027 5.69758C18.4027 4.02143 18.4027 2.60034 18.4027 2.52747C18.4027 1.72583 18.0456 0.778441 16.9914 0.778441C16.9914 0.760223 16.9914 0.723785 16.9914 0.705566C17.2464 0.705566 17.9776 0.705566 18.7598 0.705566C18.8278 0.705566 18.8788 0.705566 18.9298 0.705566C18.9298 0.705566 18.9979 0.705566 19.0829 0.705566C19.338 0.705566 19.7801 0.705566 19.9501 0.705566C20.0351 0.705566 20.4092 0.705566 20.8683 0.705566C21.5655 0.705566 22.4667 0.705566 22.7728 0.705566C24.6263 0.705566 25.5955 1.5983 25.5955 2.72788C25.5955 3.45664 25.2555 4.11252 24.2522 4.76841C23.385 5.35141 21.5485 5.95264 21.5485 6.7725ZM34.2114 0.705566C34.4835 0.705566 36.9491 0.705566 37.6803 0.705566C37.6803 0.742004 37.6803 0.760223 37.6803 0.796661C36.9661 0.905976 36.4049 1.63474 35.8608 3.25623C35.3507 4.78663 33.1231 11.3455 32.766 12.4022C32.9191 12.8394 33.0041 13.0945 33.0041 13.0945H31.7118C31.7118 13.0945 29.2121 5.55182 28.3449 2.96472C27.9538 1.78049 27.3076 0.796661 26.2534 0.796661C26.2534 0.778441 26.2534 0.742004 26.2534 0.705566C26.4574 0.705566 30.9466 0.705566 31.1676 0.705566C31.1676 0.742004 31.1846 0.778441 31.1846 0.796661C30.1304 0.796661 29.1951 1.56186 29.7563 3.27445C30.3684 5.15101 31.9498 9.92439 32.647 12.056C33.0041 10.7442 34.3984 5.40607 34.8406 3.74814C35.3677 1.70761 35.0276 1.06995 34.2114 0.796661C34.2114 0.778441 34.2114 0.742004 34.2114 0.705566ZM44.4177 11.054C44.6388 11.8192 45.1319 12.5479 46.2032 13.0034C46.2032 13.0216 46.2032 13.0581 46.2032 13.0945C45.8461 13.0945 45.404 13.0945 44.9278 13.0945H43.6355C43.6015 13.0945 43.5675 13.0945 43.5505 13.0945C42.7513 13.0945 42.2752 13.0945 41.697 13.0945C41.697 13.0581 41.697 13.0216 41.697 13.0034C42.9043 12.5661 43.2784 11.8009 43.0234 10.6531L42.8363 9.90617C42.5642 9.56001 41.527 8.23002 41.0509 8.13892C40.5067 8.02961 40.2177 8.23002 39.9286 9.76042C39.6565 11.309 39.8776 13.1856 38.2452 13.2767C36.6297 13.3678 35.2184 10.6714 36.4427 8.01139C37.752 5.18744 39.4184 3.91211 39.8436 2.83719C40.0816 2.25418 40.2857 1.85336 40.4217 1.61652C40.1326 1.28857 39.7585 1.01529 39.2484 0.778441C39.2484 0.760223 39.2484 0.723785 39.2484 0.705566C39.6055 0.705566 40.0476 0.705566 40.5237 0.705566C40.8128 0.705566 41.1189 0.705566 41.425 0.705566C41.476 0.705566 41.51 0.705566 41.544 0.705566H41.782H41.8161C41.8501 0.705566 41.8841 0.705566 41.9011 0.705566C42.7003 0.705566 43.1764 0.705566 43.7546 0.705566C43.7546 0.723785 43.7546 0.760223 43.7546 0.778441C42.4962 0.887757 41.9861 1.1246 42.4282 3.11048L44.4177 11.054ZM40.7618 8.01139C41.561 7.90208 42.2242 8.5033 42.5983 8.99522L40.9999 2.63678C40.9148 2.3635 40.7958 2.10843 40.6258 1.85336C40.3027 2.50925 39.4525 4.1854 38.7043 5.05991C37.769 6.13483 37.0719 8.66727 37.0889 10.6349C37.1059 12.5479 37.9051 13.1309 38.4832 13.1309C38.9423 13.1309 39.1804 12.1471 39.2144 11.4183C39.2484 10.143 39.5545 8.17536 40.7618 8.01139ZM55.3797 0.705566C54.9715 1.30679 54.2914 2.3635 54.8015 4.71375C55.2776 7.00934 55.6517 8.79481 55.4477 10.2341C55.2266 11.892 54.4954 13.2949 53.1861 13.2949C51.4176 13.2949 51.0776 11.5277 50.2614 8.01139C49.8363 6.11661 49.4111 4.53156 48.85 2.10843C48.697 1.43433 48.5609 0.905976 48.3229 0.905976C48.1528 0.905976 48.2549 0.905976 48.0168 0.905976C48.0168 0.960633 48.0168 4.11252 48.0168 5.84333C48.0168 7.61057 48.0168 11.1997 48.0168 11.2544C48.0168 12.0742 48.3569 13.0034 49.4281 13.0034C49.4281 13.0398 49.4281 13.0763 49.4281 13.0945C49.1901 13.0945 48.5949 13.0945 47.8978 13.0945C47.8808 13.0945 47.8808 13.0945 47.8638 13.0945C47.1666 13.0945 46.5714 13.0945 46.3334 13.0945C46.3334 13.0763 46.3334 13.0398 46.3334 13.0034C47.4046 13.0034 47.7447 12.0742 47.7447 11.2544C47.7447 8.35755 47.7447 5.44251 47.7447 2.54569C47.7447 1.72583 47.4046 0.796661 46.3334 0.796661C46.3334 0.760223 46.3334 0.742004 46.3334 0.705566C47.9658 0.705566 48.0508 0.705566 48.1358 0.705566C48.2719 0.705566 48.5099 0.705566 48.918 0.705566C49.8873 0.705566 49.9893 1.61652 50.2614 2.76431C50.6695 4.49512 51.1456 6.33524 51.6557 8.44865C52.2339 10.8353 52.676 13.0945 53.3391 13.0945C54.3254 13.0945 54.7505 11.8738 54.7165 10.2341C54.6825 8.2118 53.8663 6.3899 53.5092 4.82306C53.0331 2.655 53.2711 1.43433 53.6622 0.705566C54.2914 0.705566 54.8355 0.705566 55.3797 0.705566ZM64.9589 11.054C65.1799 11.8192 65.673 12.5479 66.7443 13.0034C66.7443 13.0216 66.7443 13.0581 66.7443 13.0945C66.3872 13.0945 65.9451 13.0945 65.469 13.0945H64.1767C64.1427 13.0945 64.1086 13.0945 64.0916 13.0945C63.2924 13.0945 62.8163 13.0945 62.2382 13.0945C62.2382 13.0581 62.2382 13.0216 62.2382 13.0034C63.4455 12.5661 63.8196 11.8009 63.5645 10.6531L63.3775 9.90617C63.1054 9.56001 62.0681 8.23002 61.592 8.13892C61.0479 8.02961 60.7588 8.23002 60.4697 9.76042C60.1977 11.309 60.4187 13.1856 58.7863 13.2767C57.1711 13.3678 55.7597 10.6714 56.984 8.01139C58.2932 5.18744 59.9596 3.91211 60.3847 2.83719C60.6228 2.25418 60.8268 1.85336 60.9628 1.61652C60.6738 1.28857 60.2997 1.01529 59.7896 0.778441C59.7896 0.760223 59.7896 0.723785 59.7896 0.705566C60.1466 0.705566 60.5888 0.705566 61.0649 0.705566C61.3539 0.705566 61.66 0.705566 61.9661 0.705566C62.0171 0.705566 62.0511 0.705566 62.0851 0.705566H62.3232H62.3572C62.3912 0.705566 62.4252 0.705566 62.4422 0.705566C63.2414 0.705566 63.7175 0.705566 64.2957 0.705566C64.2957 0.723785 64.2957 0.760223 64.2957 0.778441C63.0374 0.887757 62.5272 1.1246 62.9694 3.11048L64.9589 11.054ZM61.3029 8.01139C62.1021 7.90208 62.7653 8.5033 63.1394 8.99522L61.541 2.63678C61.456 2.3635 61.3369 2.10843 61.1669 1.85336C60.8438 2.50925 59.9936 4.1854 59.2454 5.05991C58.3102 6.13483 57.613 8.66727 57.63 10.6349C57.647 12.5479 58.4462 13.1309 59.0244 13.1309C59.4835 13.1309 59.7215 12.1471 59.7555 11.4183C59.7896 10.143 60.0956 8.17536 61.3029 8.01139Z" fill="black"/>
<path d="M5.71019 0.705566C9.79123 0.705566 12.2228 3.14691 12.2228 7.08222C12.2228 11.0357 9.74021 13.0945 6.45838 13.0945C6.03327 13.0945 5.43812 13.0945 4.87698 13.0945C4.62192 13.0945 3.89073 13.0945 3.09153 13.0945C2.9895 13.0945 2.88748 13.0945 2.76845 13.0945C1.98625 13.0945 1.25506 13.0945 1 13.0945C1 13.0763 1 13.0398 1 13.0034C2.05427 13.0034 2.39435 12.0742 2.39435 11.2544C2.39435 11.1815 2.39435 7.42838 2.39435 5.69758C2.39435 4.03965 2.39435 2.60034 2.39435 2.54569C2.39435 1.72583 2.05427 0.796661 1 0.796661C1 0.760223 1 0.723785 1 0.705566C1.25506 0.705566 1.98625 0.705566 2.76845 0.705566C2.87047 0.705566 2.9895 0.705566 3.09153 0.705566C3.32959 0.705566 3.55065 0.705566 3.7547 0.705566C3.78871 0.705566 3.82271 0.705566 3.83972 0.705566C4.34985 0.705566 5.71019 0.705566 5.71019 0.705566ZM6.56041 12.8759C8.03978 12.8759 10.7605 11.7098 10.7605 7.08222C10.7605 4.82306 9.55317 0.887756 5.94825 0.887756C4.5709 0.887756 4.23082 0.887756 3.46562 0.887756C3.46562 0.960633 3.46562 4.11252 3.46562 5.84333C3.46562 7.28263 3.46562 9.88795 3.46562 10.8718C3.49963 11.473 3.80571 12.8759 6.56041 12.8759ZM14.1932 0.705566C14.3123 0.705566 14.4143 0.705566 14.5163 0.705566C15.3155 0.705566 16.0467 0.705566 16.3018 0.705566C16.3018 0.723785 16.3018 0.760223 16.3018 0.796661C15.2475 0.796661 14.8904 1.72583 14.8904 2.54569C14.8904 2.61856 14.8904 4.11252 14.8904 5.84333C14.8904 7.62879 14.8904 11.1815 14.8904 11.2544C14.8904 12.0742 15.2475 13.0034 16.3018 13.0034C16.3018 13.0398 16.3018 13.0763 16.3018 13.0945C16.0467 13.0945 15.3155 13.0945 14.5163 13.0945C14.4143 13.0945 14.3123 13.0945 14.1932 13.0945C13.411 13.0945 12.6799 13.0945 12.4248 13.0945C12.4248 13.0763 12.4248 13.0398 12.4248 13.0034C13.4791 13.0034 13.8191 12.0742 13.8191 11.2544C13.8191 11.1815 13.8191 7.42838 13.8191 5.69758C13.8191 4.03965 13.8191 2.60034 13.8191 2.54569C13.8191 1.72583 13.4791 0.796661 12.4248 0.796661C12.4248 0.760223 12.4248 0.723785 12.4248 0.705566C12.6799 0.705566 13.411 0.705566 14.1932 0.705566ZM21.5485 6.7725C21.5485 8.37577 25.3065 12.3657 27.0919 13.0945C26.5478 13.0945 25.2214 13.0945 24.8984 13.0945C23.385 12.3475 21.3445 9.41425 21.3445 6.82715C21.3445 6.09839 21.5485 5.55182 22.3477 4.9506C23.385 3.29267 24.3032 3.67527 24.3032 2.67322C24.3032 1.70761 23.2149 0.887756 21.9396 0.887756C20.9704 1.10638 20.0351 1.05173 19.457 0.978852C19.457 1.48898 19.457 3.98499 19.457 5.58826L19.508 5.57004C19.508 7.30085 19.457 11.1815 19.457 11.2544C19.457 12.056 19.8141 13.0034 20.8683 13.0034C20.8683 13.0216 20.8683 13.0581 20.8683 13.0945C20.6133 13.0945 19.8821 13.0945 19.0829 13.0945C18.9809 13.0945 18.8788 13.0945 18.7598 13.0945C17.9776 13.0945 17.2464 13.0945 16.9914 13.0945C16.9914 13.0581 16.9914 13.0216 16.9914 13.0034C18.0456 13.0034 18.4027 12.056 18.4027 11.2544C18.4027 11.1815 18.4027 7.61057 18.4027 5.84333C18.4027 5.78867 18.4027 5.73401 18.4027 5.69758C18.4027 4.02143 18.4027 2.60034 18.4027 2.52747C18.4027 1.72583 18.0456 0.778441 16.9914 0.778441C16.9914 0.760223 16.9914 0.723785 16.9914 0.705566C17.2464 0.705566 17.9776 0.705566 18.7598 0.705566C18.8278 0.705566 18.8788 0.705566 18.9298 0.705566C18.9298 0.705566 18.9979 0.705566 19.0829 0.705566C19.338 0.705566 19.7801 0.705566 19.9501 0.705566C20.0351 0.705566 20.4092 0.705566 20.8683 0.705566C21.5655 0.705566 22.4667 0.705566 22.7728 0.705566C24.6263 0.705566 25.5955 1.5983 25.5955 2.72788C25.5955 3.45664 25.2555 4.11252 24.2522 4.76841C23.385 5.35141 21.5485 5.95264 21.5485 6.7725ZM34.2114 0.705566C34.4835 0.705566 36.9491 0.705566 37.6803 0.705566C37.6803 0.742004 37.6803 0.760223 37.6803 0.796661C36.9661 0.905976 36.4049 1.63474 35.8608 3.25623C35.3507 4.78663 33.1231 11.3455 32.766 12.4022C32.9191 12.8394 33.0041 13.0945 33.0041 13.0945H31.7118C31.7118 13.0945 29.2121 5.55182 28.3449 2.96472C27.9538 1.78049 27.3076 0.796661 26.2534 0.796661C26.2534 0.778441 26.2534 0.742004 26.2534 0.705566C26.4574 0.705566 30.9466 0.705566 31.1676 0.705566C31.1676 0.742004 31.1846 0.778441 31.1846 0.796661C30.1304 0.796661 29.1951 1.56186 29.7563 3.27445C30.3684 5.15101 31.9498 9.92439 32.647 12.056C33.0041 10.7442 34.3984 5.40607 34.8406 3.74814C35.3677 1.70761 35.0276 1.06995 34.2114 0.796661C34.2114 0.778441 34.2114 0.742004 34.2114 0.705566ZM44.4177 11.054C44.6388 11.8192 45.1319 12.5479 46.2032 13.0034C46.2032 13.0216 46.2032 13.0581 46.2032 13.0945C45.8461 13.0945 45.404 13.0945 44.9278 13.0945H43.6355C43.6015 13.0945 43.5675 13.0945 43.5505 13.0945C42.7513 13.0945 42.2752 13.0945 41.697 13.0945C41.697 13.0581 41.697 13.0216 41.697 13.0034C42.9043 12.5661 43.2784 11.8009 43.0234 10.6531L42.8363 9.90617C42.5642 9.56001 41.527 8.23002 41.0509 8.13892C40.5067 8.02961 40.2177 8.23002 39.9286 9.76042C39.6565 11.309 39.8776 13.1856 38.2452 13.2767C36.6297 13.3678 35.2184 10.6714 36.4427 8.01139C37.752 5.18744 39.4184 3.91211 39.8436 2.83719C40.0816 2.25418 40.2857 1.85336 40.4217 1.61652C40.1326 1.28857 39.7585 1.01529 39.2484 0.778441C39.2484 0.760223 39.2484 0.723785 39.2484 0.705566C39.6055 0.705566 40.0476 0.705566 40.5237 0.705566C40.8128 0.705566 41.1189 0.705566 41.425 0.705566C41.476 0.705566 41.51 0.705566 41.544 0.705566H41.782H41.8161C41.8501 0.705566 41.8841 0.705566 41.9011 0.705566C42.7003 0.705566 43.1764 0.705566 43.7546 0.705566C43.7546 0.723785 43.7546 0.760223 43.7546 0.778441C42.4962 0.887757 41.9861 1.1246 42.4282 3.11048L44.4177 11.054ZM40.7618 8.01139C41.561 7.90208 42.2242 8.5033 42.5983 8.99522L40.9999 2.63678C40.9148 2.3635 40.7958 2.10843 40.6258 1.85336C40.3027 2.50925 39.4525 4.1854 38.7043 5.05991C37.769 6.13483 37.0719 8.66727 37.0889 10.6349C37.1059 12.5479 37.9051 13.1309 38.4832 13.1309C38.9423 13.1309 39.1804 12.1471 39.2144 11.4183C39.2484 10.143 39.5545 8.17536 40.7618 8.01139ZM55.3797 0.705566C54.9715 1.30679 54.2914 2.3635 54.8015 4.71375C55.2776 7.00934 55.6517 8.79481 55.4477 10.2341C55.2266 11.892 54.4954 13.2949 53.1861 13.2949C51.4176 13.2949 51.0776 11.5277 50.2614 8.01139C49.8363 6.11661 49.4111 4.53156 48.85 2.10843C48.697 1.43433 48.5609 0.905976 48.3229 0.905976C48.1528 0.905976 48.2549 0.905976 48.0168 0.905976C48.0168 0.960633 48.0168 4.11252 48.0168 5.84333C48.0168 7.61057 48.0168 11.1997 48.0168 11.2544C48.0168 12.0742 48.3569 13.0034 49.4281 13.0034C49.4281 13.0398 49.4281 13.0763 49.4281 13.0945C49.1901 13.0945 48.5949 13.0945 47.8978 13.0945C47.8808 13.0945 47.8808 13.0945 47.8638 13.0945C47.1666 13.0945 46.5714 13.0945 46.3334 13.0945C46.3334 13.0763 46.3334 13.0398 46.3334 13.0034C47.4046 13.0034 47.7447 12.0742 47.7447 11.2544C47.7447 8.35755 47.7447 5.44251 47.7447 2.54569C47.7447 1.72583 47.4046 0.796661 46.3334 0.796661C46.3334 0.760223 46.3334 0.742004 46.3334 0.705566C47.9658 0.705566 48.0508 0.705566 48.1358 0.705566C48.2719 0.705566 48.5099 0.705566 48.918 0.705566C49.8873 0.705566 49.9893 1.61652 50.2614 2.76431C50.6695 4.49512 51.1456 6.33524 51.6557 8.44865C52.2339 10.8353 52.676 13.0945 53.3391 13.0945C54.3254 13.0945 54.7505 11.8738 54.7165 10.2341C54.6825 8.2118 53.8663 6.3899 53.5092 4.82306C53.0331 2.655 53.2711 1.43433 53.6622 0.705566C54.2914 0.705566 54.8355 0.705566 55.3797 0.705566ZM64.9589 11.054C65.1799 11.8192 65.673 12.5479 66.7443 13.0034C66.7443 13.0216 66.7443 13.0581 66.7443 13.0945C66.3872 13.0945 65.9451 13.0945 65.469 13.0945H64.1767C64.1427 13.0945 64.1086 13.0945 64.0916 13.0945C63.2924 13.0945 62.8163 13.0945 62.2382 13.0945C62.2382 13.0581 62.2382 13.0216 62.2382 13.0034C63.4455 12.5661 63.8196 11.8009 63.5645 10.6531L63.3775 9.90617C63.1054 9.56001 62.0681 8.23002 61.592 8.13892C61.0479 8.02961 60.7588 8.23002 60.4697 9.76042C60.1977 11.309 60.4187 13.1856 58.7863 13.2767C57.1711 13.3678 55.7597 10.6714 56.984 8.01139C58.2932 5.18744 59.9596 3.91211 60.3847 2.83719C60.6228 2.25418 60.8268 1.85336 60.9628 1.61652C60.6738 1.28857 60.2997 1.01529 59.7896 0.778441C59.7896 0.760223 59.7896 0.723785 59.7896 0.705566C60.1466 0.705566 60.5888 0.705566 61.0649 0.705566C61.3539 0.705566 61.66 0.705566 61.9661 0.705566C62.0171 0.705566 62.0511 0.705566 62.0851 0.705566H62.3232H62.3572C62.3912 0.705566 62.4252 0.705566 62.4422 0.705566C63.2414 0.705566 63.7175 0.705566 64.2957 0.705566C64.2957 0.723785 64.2957 0.760223 64.2957 0.778441C63.0374 0.887757 62.5272 1.1246 62.9694 3.11048L64.9589 11.054ZM61.3029 8.01139C62.1021 7.90208 62.7653 8.5033 63.1394 8.99522L61.541 2.63678C61.456 2.3635 61.3369 2.10843 61.1669 1.85336C60.8438 2.50925 59.9936 4.1854 59.2454 5.05991C58.3102 6.13483 57.613 8.66727 57.63 10.6349C57.647 12.5479 58.4462 13.1309 59.0244 13.1309C59.4835 13.1309 59.7215 12.1471 59.7555 11.4183C59.7896 10.143 60.0956 8.17536 61.3029 8.01139Z" stroke="black" stroke-width="0.2" mask="url(#path-1-outside-1_1291_1683)"/>
</svg>
