<svg width="171" height="34" viewBox="0 0 171 34" fill="none" xmlns="http://www.w3.org/2000/svg">
<mask id="path-1-outside-1_916_7639" maskUnits="userSpaceOnUse" x="0" y="-0.121582" width="171" height="35" fill="black">
<rect fill="white" y="-0.121582" width="171" height="35"/>
<path d="M13.1079 0.878418C23.5984 0.878418 29.849 7.27784 29.849 17.5933C29.849 27.9566 23.4673 33.3531 15.0311 33.3531C13.9384 33.3531 12.4085 33.3531 10.966 33.3531C10.3104 33.3531 8.43081 33.3531 6.37641 33.3531C6.11415 33.3531 5.85188 33.3531 5.54591 33.3531C3.53522 33.3531 1.65566 33.3531 1 33.3531C1 33.3053 1 33.2098 1 33.1143C3.71006 33.1143 4.58427 30.6787 4.58427 28.5296C4.58427 28.3386 4.58427 18.5007 4.58427 13.9638C4.58427 9.61793 4.58427 5.84513 4.58427 5.70186C4.58427 3.5528 3.71006 1.1172 1 1.1172C1 1.02169 1 0.926173 1 0.878418C1.65566 0.878418 3.53522 0.878418 5.54591 0.878418C5.80817 0.878418 6.11415 0.878418 6.37641 0.878418C6.98836 0.878418 7.5566 0.878418 8.08113 0.878418C8.16855 0.878418 8.25597 0.878418 8.29968 0.878418C9.611 0.878418 13.1079 0.878418 13.1079 0.878418ZM15.2934 32.78C19.0962 32.78 26.0899 29.7236 26.0899 17.5933C26.0899 11.6715 22.9865 1.35599 13.7198 1.35599C10.1792 1.35599 9.30503 1.35599 7.33805 1.35599C7.33805 1.54701 7.33805 9.80895 7.33805 14.3459C7.33805 18.1187 7.33805 24.9479 7.33805 27.5268C7.42547 29.1027 8.21226 32.78 15.2934 32.78ZM34.9141 0.878418C35.2201 0.878418 35.4823 0.878418 35.7446 0.878418C37.799 0.878418 39.6785 0.878418 40.3342 0.878418C40.3342 0.926173 40.3342 1.02169 40.3342 1.1172C37.6241 1.1172 36.7062 3.5528 36.7062 5.70186C36.7062 5.89289 36.7062 9.80895 36.7062 14.3459C36.7062 19.026 36.7062 28.3386 36.7062 28.5296C36.7062 30.6787 37.6241 33.1143 40.3342 33.1143C40.3342 33.2098 40.3342 33.3053 40.3342 33.3531C39.6785 33.3531 37.799 33.3531 35.7446 33.3531C35.4823 33.3531 35.2201 33.3531 34.9141 33.3531C32.9034 33.3531 31.0238 33.3531 30.3682 33.3531C30.3682 33.3053 30.3682 33.2098 30.3682 33.1143C33.0782 33.1143 33.9524 30.6787 33.9524 28.5296C33.9524 28.3386 33.9524 18.5007 33.9524 13.9638C33.9524 9.61793 33.9524 5.84513 33.9524 5.70186C33.9524 3.5528 33.0782 1.1172 30.3682 1.1172C30.3682 1.02169 30.3682 0.926173 30.3682 0.878418C31.0238 0.878418 32.9034 0.878418 34.9141 0.878418ZM53.8213 16.7815C53.8213 20.9841 63.4813 31.4428 68.071 33.3531C66.6722 33.3531 63.2628 33.3531 62.4323 33.3531C58.542 31.3951 53.2967 23.7062 53.2967 16.9247C53.2967 15.0145 53.8213 13.5817 55.8757 12.0058C58.542 7.65989 60.9024 8.66279 60.9024 6.03616C60.9024 3.50505 58.1049 1.35599 54.8266 1.35599C52.3351 1.92907 49.931 1.7858 48.4449 1.59477C48.4449 2.93196 48.4449 9.47466 48.4449 13.6773L48.576 13.6295C48.576 18.1664 48.4449 28.3386 48.4449 28.5296C48.4449 30.631 49.3628 33.1143 52.0729 33.1143C52.0729 33.1621 52.0729 33.2576 52.0729 33.3531C51.4172 33.3531 49.5376 33.3531 47.4832 33.3531C47.221 33.3531 46.9587 33.3531 46.6527 33.3531C44.642 33.3531 42.7625 33.3531 42.1068 33.3531C42.1068 33.2576 42.1068 33.1621 42.1068 33.1143C44.8169 33.1143 45.7348 30.631 45.7348 28.5296C45.7348 28.3386 45.7348 18.9783 45.7348 14.3459C45.7348 14.2026 45.7348 14.0593 45.7348 13.9638C45.7348 9.57017 45.7348 5.84513 45.7348 5.65411C45.7348 3.5528 44.8169 1.06944 42.1068 1.06944C42.1068 1.02169 42.1068 0.926173 42.1068 0.878418C42.7625 0.878418 44.642 0.878418 46.6527 0.878418C46.8276 0.878418 46.9587 0.878418 47.0898 0.878418C47.0898 0.878418 47.2647 0.878418 47.4832 0.878418C48.1389 0.878418 49.2754 0.878418 49.7125 0.878418C49.931 0.878418 50.8927 0.878418 52.0729 0.878418C53.865 0.878418 56.1817 0.878418 56.9684 0.878418C61.7329 0.878418 64.2244 3.2185 64.2244 6.17943C64.2244 8.08971 63.3502 9.80895 60.7713 11.5282C58.542 13.0564 53.8213 14.6324 53.8213 16.7815ZM86.372 0.878418C87.0714 0.878418 93.4094 0.878418 95.289 0.878418C95.289 0.97393 95.289 1.02169 95.289 1.1172C93.4531 1.40374 92.0107 3.31402 90.612 7.56438C89.3006 11.576 83.5745 28.7684 82.6566 31.5383C83.05 32.6845 83.2686 33.3531 83.2686 33.3531H79.9466C79.9466 33.3531 73.5211 13.5817 71.2918 6.80027C70.2865 3.69607 68.6255 1.1172 65.9154 1.1172C65.9154 1.06944 65.9154 0.97393 65.9154 0.878418C66.44 0.878418 77.9796 0.878418 78.5478 0.878418C78.5478 0.97393 78.5915 1.06944 78.5915 1.1172C75.8815 1.1172 73.4774 3.12299 74.9198 7.61214C76.4934 12.5311 80.5585 25.0434 82.3506 30.6309C83.2686 27.1925 86.8528 13.1997 87.9893 8.85382C89.3444 3.50505 88.4701 1.83356 86.372 1.1172C86.372 1.06944 86.372 0.97393 86.372 0.878418ZM112.608 28.0043C113.176 30.0101 114.444 31.9204 117.198 33.1143C117.198 33.1621 117.198 33.2576 117.198 33.3531C116.28 33.3531 115.143 33.3531 113.919 33.3531H110.597C110.51 33.3531 110.423 33.3531 110.379 33.3531C108.324 33.3531 107.1 33.3531 105.614 33.3531C105.614 33.2576 105.614 33.1621 105.614 33.1143C108.718 31.9681 109.679 29.9624 109.024 26.9537L108.543 24.9956C107.844 24.0883 105.177 20.602 103.953 20.3632C102.555 20.0767 101.812 20.602 101.068 24.6136C100.369 28.6729 100.937 33.5919 96.7411 33.8307C92.5886 34.0694 88.9606 27.0014 92.1077 20.0289C95.4735 12.6266 99.7571 9.28363 100.85 6.46597C101.462 4.93775 101.986 3.8871 102.336 3.26626C101.593 2.40664 100.631 1.69028 99.32 1.06944C99.32 1.02169 99.32 0.926173 99.32 0.878418C100.238 0.878418 101.374 0.878418 102.598 0.878418C103.341 0.878418 104.128 0.878418 104.915 0.878418C105.046 0.878418 105.134 0.878418 105.221 0.878418H105.833H105.92C106.008 0.878418 106.095 0.878418 106.139 0.878418C108.193 0.878418 109.417 0.878418 110.903 0.878418C110.903 0.926173 110.903 1.02169 110.903 1.06944C107.669 1.35599 106.357 1.97683 107.494 7.18233L112.608 28.0043ZM103.21 20.0289C105.265 19.7424 106.969 21.3184 107.931 22.6078L103.822 5.94065C103.604 5.22429 103.298 4.5557 102.861 3.8871C102.03 5.60635 99.8445 9.99998 97.9212 12.2923C95.5172 15.11 93.725 21.7482 93.7687 26.9059C93.8125 31.9204 95.8669 33.4486 97.353 33.4486C98.5332 33.4486 99.1451 30.8697 99.2326 28.9595C99.32 25.6165 100.107 20.4587 103.21 20.0289ZM140.786 0.878418C139.737 2.45439 137.989 5.22429 139.3 11.3849C140.524 17.4023 141.486 22.0825 140.961 25.8553C140.393 30.2011 138.513 33.8784 135.148 33.8784C130.602 33.8784 129.728 29.246 127.63 20.0289C126.537 15.0622 125.444 10.9074 124.002 4.5557C123.608 2.78869 123.258 1.40374 122.646 1.40374C122.209 1.40374 122.472 1.40374 121.86 1.40374C121.86 1.54701 121.86 9.80895 121.86 14.3459C121.86 18.9783 121.86 28.3864 121.86 28.5296C121.86 30.6787 122.734 33.1143 125.488 33.1143C125.488 33.2098 125.488 33.3053 125.488 33.3531C124.876 33.3531 123.346 33.3531 121.554 33.3531C121.51 33.3531 121.51 33.3531 121.466 33.3531C119.674 33.3531 118.144 33.3531 117.532 33.3531C117.532 33.3053 117.532 33.2098 117.532 33.1143C120.286 33.1143 121.16 30.6787 121.16 28.5296C121.16 20.9363 121.16 13.2952 121.16 5.70186C121.16 3.5528 120.286 1.1172 117.532 1.1172C117.532 1.02169 117.532 0.97393 117.532 0.878418C121.729 0.878418 121.947 0.878418 122.166 0.878418C122.515 0.878418 123.127 0.878418 124.176 0.878418C126.668 0.878418 126.93 3.26626 127.63 6.27495C128.679 10.8118 129.902 15.6353 131.214 21.1751C132.7 27.4312 133.836 33.3531 135.541 33.3531C138.076 33.3531 139.169 30.1534 139.082 25.8553C138.994 20.5543 136.896 15.7786 135.978 11.6715C134.754 5.9884 135.366 2.78869 136.372 0.878418C137.989 0.878418 139.388 0.878418 140.786 0.878418ZM165.41 28.0043C165.979 30.0101 167.246 31.9204 170 33.1143C170 33.1621 170 33.2576 170 33.3531C169.082 33.3531 167.946 33.3531 166.722 33.3531H163.4C163.312 33.3531 163.225 33.3531 163.181 33.3531C161.127 33.3531 159.903 33.3531 158.417 33.3531C158.417 33.2576 158.417 33.1621 158.417 33.1143C161.52 31.9681 162.482 29.9624 161.826 26.9537L161.345 24.9956C160.646 24.0883 157.98 20.602 156.756 20.3632C155.357 20.0767 154.614 20.602 153.871 24.6136C153.171 28.6729 153.74 33.5919 149.543 33.8307C145.391 34.0694 141.763 27.0014 144.911 20.0289C148.276 12.6266 152.559 9.28363 153.652 6.46597C154.264 4.93775 154.789 3.8871 155.138 3.26626C154.395 2.40664 153.434 1.69028 152.122 1.06944C152.122 1.02169 152.122 0.926173 152.122 0.878418C153.04 0.878418 154.177 0.878418 155.401 0.878418C156.144 0.878418 156.931 0.878418 157.717 0.878418C157.848 0.878418 157.936 0.878418 158.023 0.878418H158.635H158.723C158.81 0.878418 158.897 0.878418 158.941 0.878418C160.996 0.878418 162.219 0.878418 163.706 0.878418C163.706 0.926173 163.706 1.02169 163.706 1.06944C160.471 1.35599 159.16 1.97683 160.296 7.18233L165.41 28.0043ZM156.013 20.0289C158.067 19.7424 159.772 21.3184 160.733 22.6078L156.625 5.94065C156.406 5.22429 156.1 4.5557 155.663 3.8871C154.832 5.60635 152.647 9.99998 150.724 12.2923C148.319 15.11 146.527 21.7482 146.571 26.9059C146.615 31.9204 148.669 33.4486 150.155 33.4486C151.336 33.4486 151.947 30.8697 152.035 28.9595C152.122 25.6165 152.909 20.4587 156.013 20.0289Z"/>
</mask>
<path d="M13.1079 0.878418C23.5984 0.878418 29.849 7.27784 29.849 17.5933C29.849 27.9566 23.4673 33.3531 15.0311 33.3531C13.9384 33.3531 12.4085 33.3531 10.966 33.3531C10.3104 33.3531 8.43081 33.3531 6.37641 33.3531C6.11415 33.3531 5.85188 33.3531 5.54591 33.3531C3.53522 33.3531 1.65566 33.3531 1 33.3531C1 33.3053 1 33.2098 1 33.1143C3.71006 33.1143 4.58427 30.6787 4.58427 28.5296C4.58427 28.3386 4.58427 18.5007 4.58427 13.9638C4.58427 9.61793 4.58427 5.84513 4.58427 5.70186C4.58427 3.5528 3.71006 1.1172 1 1.1172C1 1.02169 1 0.926173 1 0.878418C1.65566 0.878418 3.53522 0.878418 5.54591 0.878418C5.80817 0.878418 6.11415 0.878418 6.37641 0.878418C6.98836 0.878418 7.5566 0.878418 8.08113 0.878418C8.16855 0.878418 8.25597 0.878418 8.29968 0.878418C9.611 0.878418 13.1079 0.878418 13.1079 0.878418ZM15.2934 32.78C19.0962 32.78 26.0899 29.7236 26.0899 17.5933C26.0899 11.6715 22.9865 1.35599 13.7198 1.35599C10.1792 1.35599 9.30503 1.35599 7.33805 1.35599C7.33805 1.54701 7.33805 9.80895 7.33805 14.3459C7.33805 18.1187 7.33805 24.9479 7.33805 27.5268C7.42547 29.1027 8.21226 32.78 15.2934 32.78ZM34.9141 0.878418C35.2201 0.878418 35.4823 0.878418 35.7446 0.878418C37.799 0.878418 39.6785 0.878418 40.3342 0.878418C40.3342 0.926173 40.3342 1.02169 40.3342 1.1172C37.6241 1.1172 36.7062 3.5528 36.7062 5.70186C36.7062 5.89289 36.7062 9.80895 36.7062 14.3459C36.7062 19.026 36.7062 28.3386 36.7062 28.5296C36.7062 30.6787 37.6241 33.1143 40.3342 33.1143C40.3342 33.2098 40.3342 33.3053 40.3342 33.3531C39.6785 33.3531 37.799 33.3531 35.7446 33.3531C35.4823 33.3531 35.2201 33.3531 34.9141 33.3531C32.9034 33.3531 31.0238 33.3531 30.3682 33.3531C30.3682 33.3053 30.3682 33.2098 30.3682 33.1143C33.0782 33.1143 33.9524 30.6787 33.9524 28.5296C33.9524 28.3386 33.9524 18.5007 33.9524 13.9638C33.9524 9.61793 33.9524 5.84513 33.9524 5.70186C33.9524 3.5528 33.0782 1.1172 30.3682 1.1172C30.3682 1.02169 30.3682 0.926173 30.3682 0.878418C31.0238 0.878418 32.9034 0.878418 34.9141 0.878418ZM53.8213 16.7815C53.8213 20.9841 63.4813 31.4428 68.071 33.3531C66.6722 33.3531 63.2628 33.3531 62.4323 33.3531C58.542 31.3951 53.2967 23.7062 53.2967 16.9247C53.2967 15.0145 53.8213 13.5817 55.8757 12.0058C58.542 7.65989 60.9024 8.66279 60.9024 6.03616C60.9024 3.50505 58.1049 1.35599 54.8266 1.35599C52.3351 1.92907 49.931 1.7858 48.4449 1.59477C48.4449 2.93196 48.4449 9.47466 48.4449 13.6773L48.576 13.6295C48.576 18.1664 48.4449 28.3386 48.4449 28.5296C48.4449 30.631 49.3628 33.1143 52.0729 33.1143C52.0729 33.1621 52.0729 33.2576 52.0729 33.3531C51.4172 33.3531 49.5376 33.3531 47.4832 33.3531C47.221 33.3531 46.9587 33.3531 46.6527 33.3531C44.642 33.3531 42.7625 33.3531 42.1068 33.3531C42.1068 33.2576 42.1068 33.1621 42.1068 33.1143C44.8169 33.1143 45.7348 30.631 45.7348 28.5296C45.7348 28.3386 45.7348 18.9783 45.7348 14.3459C45.7348 14.2026 45.7348 14.0593 45.7348 13.9638C45.7348 9.57017 45.7348 5.84513 45.7348 5.65411C45.7348 3.5528 44.8169 1.06944 42.1068 1.06944C42.1068 1.02169 42.1068 0.926173 42.1068 0.878418C42.7625 0.878418 44.642 0.878418 46.6527 0.878418C46.8276 0.878418 46.9587 0.878418 47.0898 0.878418C47.0898 0.878418 47.2647 0.878418 47.4832 0.878418C48.1389 0.878418 49.2754 0.878418 49.7125 0.878418C49.931 0.878418 50.8927 0.878418 52.0729 0.878418C53.865 0.878418 56.1817 0.878418 56.9684 0.878418C61.7329 0.878418 64.2244 3.2185 64.2244 6.17943C64.2244 8.08971 63.3502 9.80895 60.7713 11.5282C58.542 13.0564 53.8213 14.6324 53.8213 16.7815ZM86.372 0.878418C87.0714 0.878418 93.4094 0.878418 95.289 0.878418C95.289 0.97393 95.289 1.02169 95.289 1.1172C93.4531 1.40374 92.0107 3.31402 90.612 7.56438C89.3006 11.576 83.5745 28.7684 82.6566 31.5383C83.05 32.6845 83.2686 33.3531 83.2686 33.3531H79.9466C79.9466 33.3531 73.5211 13.5817 71.2918 6.80027C70.2865 3.69607 68.6255 1.1172 65.9154 1.1172C65.9154 1.06944 65.9154 0.97393 65.9154 0.878418C66.44 0.878418 77.9796 0.878418 78.5478 0.878418C78.5478 0.97393 78.5915 1.06944 78.5915 1.1172C75.8815 1.1172 73.4774 3.12299 74.9198 7.61214C76.4934 12.5311 80.5585 25.0434 82.3506 30.6309C83.2686 27.1925 86.8528 13.1997 87.9893 8.85382C89.3444 3.50505 88.4701 1.83356 86.372 1.1172C86.372 1.06944 86.372 0.97393 86.372 0.878418ZM112.608 28.0043C113.176 30.0101 114.444 31.9204 117.198 33.1143C117.198 33.1621 117.198 33.2576 117.198 33.3531C116.28 33.3531 115.143 33.3531 113.919 33.3531H110.597C110.51 33.3531 110.423 33.3531 110.379 33.3531C108.324 33.3531 107.1 33.3531 105.614 33.3531C105.614 33.2576 105.614 33.1621 105.614 33.1143C108.718 31.9681 109.679 29.9624 109.024 26.9537L108.543 24.9956C107.844 24.0883 105.177 20.602 103.953 20.3632C102.555 20.0767 101.812 20.602 101.068 24.6136C100.369 28.6729 100.937 33.5919 96.7411 33.8307C92.5886 34.0694 88.9606 27.0014 92.1077 20.0289C95.4735 12.6266 99.7571 9.28363 100.85 6.46597C101.462 4.93775 101.986 3.8871 102.336 3.26626C101.593 2.40664 100.631 1.69028 99.32 1.06944C99.32 1.02169 99.32 0.926173 99.32 0.878418C100.238 0.878418 101.374 0.878418 102.598 0.878418C103.341 0.878418 104.128 0.878418 104.915 0.878418C105.046 0.878418 105.134 0.878418 105.221 0.878418H105.833H105.92C106.008 0.878418 106.095 0.878418 106.139 0.878418C108.193 0.878418 109.417 0.878418 110.903 0.878418C110.903 0.926173 110.903 1.02169 110.903 1.06944C107.669 1.35599 106.357 1.97683 107.494 7.18233L112.608 28.0043ZM103.21 20.0289C105.265 19.7424 106.969 21.3184 107.931 22.6078L103.822 5.94065C103.604 5.22429 103.298 4.5557 102.861 3.8871C102.03 5.60635 99.8445 9.99998 97.9212 12.2923C95.5172 15.11 93.725 21.7482 93.7687 26.9059C93.8125 31.9204 95.8669 33.4486 97.353 33.4486C98.5332 33.4486 99.1451 30.8697 99.2326 28.9595C99.32 25.6165 100.107 20.4587 103.21 20.0289ZM140.786 0.878418C139.737 2.45439 137.989 5.22429 139.3 11.3849C140.524 17.4023 141.486 22.0825 140.961 25.8553C140.393 30.2011 138.513 33.8784 135.148 33.8784C130.602 33.8784 129.728 29.246 127.63 20.0289C126.537 15.0622 125.444 10.9074 124.002 4.5557C123.608 2.78869 123.258 1.40374 122.646 1.40374C122.209 1.40374 122.472 1.40374 121.86 1.40374C121.86 1.54701 121.86 9.80895 121.86 14.3459C121.86 18.9783 121.86 28.3864 121.86 28.5296C121.86 30.6787 122.734 33.1143 125.488 33.1143C125.488 33.2098 125.488 33.3053 125.488 33.3531C124.876 33.3531 123.346 33.3531 121.554 33.3531C121.51 33.3531 121.51 33.3531 121.466 33.3531C119.674 33.3531 118.144 33.3531 117.532 33.3531C117.532 33.3053 117.532 33.2098 117.532 33.1143C120.286 33.1143 121.16 30.6787 121.16 28.5296C121.16 20.9363 121.16 13.2952 121.16 5.70186C121.16 3.5528 120.286 1.1172 117.532 1.1172C117.532 1.02169 117.532 0.97393 117.532 0.878418C121.729 0.878418 121.947 0.878418 122.166 0.878418C122.515 0.878418 123.127 0.878418 124.176 0.878418C126.668 0.878418 126.93 3.26626 127.63 6.27495C128.679 10.8118 129.902 15.6353 131.214 21.1751C132.7 27.4312 133.836 33.3531 135.541 33.3531C138.076 33.3531 139.169 30.1534 139.082 25.8553C138.994 20.5543 136.896 15.7786 135.978 11.6715C134.754 5.9884 135.366 2.78869 136.372 0.878418C137.989 0.878418 139.388 0.878418 140.786 0.878418ZM165.41 28.0043C165.979 30.0101 167.246 31.9204 170 33.1143C170 33.1621 170 33.2576 170 33.3531C169.082 33.3531 167.946 33.3531 166.722 33.3531H163.4C163.312 33.3531 163.225 33.3531 163.181 33.3531C161.127 33.3531 159.903 33.3531 158.417 33.3531C158.417 33.2576 158.417 33.1621 158.417 33.1143C161.52 31.9681 162.482 29.9624 161.826 26.9537L161.345 24.9956C160.646 24.0883 157.98 20.602 156.756 20.3632C155.357 20.0767 154.614 20.602 153.871 24.6136C153.171 28.6729 153.74 33.5919 149.543 33.8307C145.391 34.0694 141.763 27.0014 144.911 20.0289C148.276 12.6266 152.559 9.28363 153.652 6.46597C154.264 4.93775 154.789 3.8871 155.138 3.26626C154.395 2.40664 153.434 1.69028 152.122 1.06944C152.122 1.02169 152.122 0.926173 152.122 0.878418C153.04 0.878418 154.177 0.878418 155.401 0.878418C156.144 0.878418 156.931 0.878418 157.717 0.878418C157.848 0.878418 157.936 0.878418 158.023 0.878418H158.635H158.723C158.81 0.878418 158.897 0.878418 158.941 0.878418C160.996 0.878418 162.219 0.878418 163.706 0.878418C163.706 0.926173 163.706 1.02169 163.706 1.06944C160.471 1.35599 159.16 1.97683 160.296 7.18233L165.41 28.0043ZM156.013 20.0289C158.067 19.7424 159.772 21.3184 160.733 22.6078L156.625 5.94065C156.406 5.22429 156.1 4.5557 155.663 3.8871C154.832 5.60635 152.647 9.99998 150.724 12.2923C148.319 15.11 146.527 21.7482 146.571 26.9059C146.615 31.9204 148.669 33.4486 150.155 33.4486C151.336 33.4486 151.947 30.8697 152.035 28.9595C152.122 25.6165 152.909 20.4587 156.013 20.0289Z" fill="#2A2A2E"/>
<path d="M13.1079 0.878418C23.5984 0.878418 29.849 7.27784 29.849 17.5933C29.849 27.9566 23.4673 33.3531 15.0311 33.3531C13.9384 33.3531 12.4085 33.3531 10.966 33.3531C10.3104 33.3531 8.43081 33.3531 6.37641 33.3531C6.11415 33.3531 5.85188 33.3531 5.54591 33.3531C3.53522 33.3531 1.65566 33.3531 1 33.3531C1 33.3053 1 33.2098 1 33.1143C3.71006 33.1143 4.58427 30.6787 4.58427 28.5296C4.58427 28.3386 4.58427 18.5007 4.58427 13.9638C4.58427 9.61793 4.58427 5.84513 4.58427 5.70186C4.58427 3.5528 3.71006 1.1172 1 1.1172C1 1.02169 1 0.926173 1 0.878418C1.65566 0.878418 3.53522 0.878418 5.54591 0.878418C5.80817 0.878418 6.11415 0.878418 6.37641 0.878418C6.98836 0.878418 7.5566 0.878418 8.08113 0.878418C8.16855 0.878418 8.25597 0.878418 8.29968 0.878418C9.611 0.878418 13.1079 0.878418 13.1079 0.878418ZM15.2934 32.78C19.0962 32.78 26.0899 29.7236 26.0899 17.5933C26.0899 11.6715 22.9865 1.35599 13.7198 1.35599C10.1792 1.35599 9.30503 1.35599 7.33805 1.35599C7.33805 1.54701 7.33805 9.80895 7.33805 14.3459C7.33805 18.1187 7.33805 24.9479 7.33805 27.5268C7.42547 29.1027 8.21226 32.78 15.2934 32.78ZM34.9141 0.878418C35.2201 0.878418 35.4823 0.878418 35.7446 0.878418C37.799 0.878418 39.6785 0.878418 40.3342 0.878418C40.3342 0.926173 40.3342 1.02169 40.3342 1.1172C37.6241 1.1172 36.7062 3.5528 36.7062 5.70186C36.7062 5.89289 36.7062 9.80895 36.7062 14.3459C36.7062 19.026 36.7062 28.3386 36.7062 28.5296C36.7062 30.6787 37.6241 33.1143 40.3342 33.1143C40.3342 33.2098 40.3342 33.3053 40.3342 33.3531C39.6785 33.3531 37.799 33.3531 35.7446 33.3531C35.4823 33.3531 35.2201 33.3531 34.9141 33.3531C32.9034 33.3531 31.0238 33.3531 30.3682 33.3531C30.3682 33.3053 30.3682 33.2098 30.3682 33.1143C33.0782 33.1143 33.9524 30.6787 33.9524 28.5296C33.9524 28.3386 33.9524 18.5007 33.9524 13.9638C33.9524 9.61793 33.9524 5.84513 33.9524 5.70186C33.9524 3.5528 33.0782 1.1172 30.3682 1.1172C30.3682 1.02169 30.3682 0.926173 30.3682 0.878418C31.0238 0.878418 32.9034 0.878418 34.9141 0.878418ZM53.8213 16.7815C53.8213 20.9841 63.4813 31.4428 68.071 33.3531C66.6722 33.3531 63.2628 33.3531 62.4323 33.3531C58.542 31.3951 53.2967 23.7062 53.2967 16.9247C53.2967 15.0145 53.8213 13.5817 55.8757 12.0058C58.542 7.65989 60.9024 8.66279 60.9024 6.03616C60.9024 3.50505 58.1049 1.35599 54.8266 1.35599C52.3351 1.92907 49.931 1.7858 48.4449 1.59477C48.4449 2.93196 48.4449 9.47466 48.4449 13.6773L48.576 13.6295C48.576 18.1664 48.4449 28.3386 48.4449 28.5296C48.4449 30.631 49.3628 33.1143 52.0729 33.1143C52.0729 33.1621 52.0729 33.2576 52.0729 33.3531C51.4172 33.3531 49.5376 33.3531 47.4832 33.3531C47.221 33.3531 46.9587 33.3531 46.6527 33.3531C44.642 33.3531 42.7625 33.3531 42.1068 33.3531C42.1068 33.2576 42.1068 33.1621 42.1068 33.1143C44.8169 33.1143 45.7348 30.631 45.7348 28.5296C45.7348 28.3386 45.7348 18.9783 45.7348 14.3459C45.7348 14.2026 45.7348 14.0593 45.7348 13.9638C45.7348 9.57017 45.7348 5.84513 45.7348 5.65411C45.7348 3.5528 44.8169 1.06944 42.1068 1.06944C42.1068 1.02169 42.1068 0.926173 42.1068 0.878418C42.7625 0.878418 44.642 0.878418 46.6527 0.878418C46.8276 0.878418 46.9587 0.878418 47.0898 0.878418C47.0898 0.878418 47.2647 0.878418 47.4832 0.878418C48.1389 0.878418 49.2754 0.878418 49.7125 0.878418C49.931 0.878418 50.8927 0.878418 52.0729 0.878418C53.865 0.878418 56.1817 0.878418 56.9684 0.878418C61.7329 0.878418 64.2244 3.2185 64.2244 6.17943C64.2244 8.08971 63.3502 9.80895 60.7713 11.5282C58.542 13.0564 53.8213 14.6324 53.8213 16.7815ZM86.372 0.878418C87.0714 0.878418 93.4094 0.878418 95.289 0.878418C95.289 0.97393 95.289 1.02169 95.289 1.1172C93.4531 1.40374 92.0107 3.31402 90.612 7.56438C89.3006 11.576 83.5745 28.7684 82.6566 31.5383C83.05 32.6845 83.2686 33.3531 83.2686 33.3531H79.9466C79.9466 33.3531 73.5211 13.5817 71.2918 6.80027C70.2865 3.69607 68.6255 1.1172 65.9154 1.1172C65.9154 1.06944 65.9154 0.97393 65.9154 0.878418C66.44 0.878418 77.9796 0.878418 78.5478 0.878418C78.5478 0.97393 78.5915 1.06944 78.5915 1.1172C75.8815 1.1172 73.4774 3.12299 74.9198 7.61214C76.4934 12.5311 80.5585 25.0434 82.3506 30.6309C83.2686 27.1925 86.8528 13.1997 87.9893 8.85382C89.3444 3.50505 88.4701 1.83356 86.372 1.1172C86.372 1.06944 86.372 0.97393 86.372 0.878418ZM112.608 28.0043C113.176 30.0101 114.444 31.9204 117.198 33.1143C117.198 33.1621 117.198 33.2576 117.198 33.3531C116.28 33.3531 115.143 33.3531 113.919 33.3531H110.597C110.51 33.3531 110.423 33.3531 110.379 33.3531C108.324 33.3531 107.1 33.3531 105.614 33.3531C105.614 33.2576 105.614 33.1621 105.614 33.1143C108.718 31.9681 109.679 29.9624 109.024 26.9537L108.543 24.9956C107.844 24.0883 105.177 20.602 103.953 20.3632C102.555 20.0767 101.812 20.602 101.068 24.6136C100.369 28.6729 100.937 33.5919 96.7411 33.8307C92.5886 34.0694 88.9606 27.0014 92.1077 20.0289C95.4735 12.6266 99.7571 9.28363 100.85 6.46597C101.462 4.93775 101.986 3.8871 102.336 3.26626C101.593 2.40664 100.631 1.69028 99.32 1.06944C99.32 1.02169 99.32 0.926173 99.32 0.878418C100.238 0.878418 101.374 0.878418 102.598 0.878418C103.341 0.878418 104.128 0.878418 104.915 0.878418C105.046 0.878418 105.134 0.878418 105.221 0.878418H105.833H105.92C106.008 0.878418 106.095 0.878418 106.139 0.878418C108.193 0.878418 109.417 0.878418 110.903 0.878418C110.903 0.926173 110.903 1.02169 110.903 1.06944C107.669 1.35599 106.357 1.97683 107.494 7.18233L112.608 28.0043ZM103.21 20.0289C105.265 19.7424 106.969 21.3184 107.931 22.6078L103.822 5.94065C103.604 5.22429 103.298 4.5557 102.861 3.8871C102.03 5.60635 99.8445 9.99998 97.9212 12.2923C95.5172 15.11 93.725 21.7482 93.7687 26.9059C93.8125 31.9204 95.8669 33.4486 97.353 33.4486C98.5332 33.4486 99.1451 30.8697 99.2326 28.9595C99.32 25.6165 100.107 20.4587 103.21 20.0289ZM140.786 0.878418C139.737 2.45439 137.989 5.22429 139.3 11.3849C140.524 17.4023 141.486 22.0825 140.961 25.8553C140.393 30.2011 138.513 33.8784 135.148 33.8784C130.602 33.8784 129.728 29.246 127.63 20.0289C126.537 15.0622 125.444 10.9074 124.002 4.5557C123.608 2.78869 123.258 1.40374 122.646 1.40374C122.209 1.40374 122.472 1.40374 121.86 1.40374C121.86 1.54701 121.86 9.80895 121.86 14.3459C121.86 18.9783 121.86 28.3864 121.86 28.5296C121.86 30.6787 122.734 33.1143 125.488 33.1143C125.488 33.2098 125.488 33.3053 125.488 33.3531C124.876 33.3531 123.346 33.3531 121.554 33.3531C121.51 33.3531 121.51 33.3531 121.466 33.3531C119.674 33.3531 118.144 33.3531 117.532 33.3531C117.532 33.3053 117.532 33.2098 117.532 33.1143C120.286 33.1143 121.16 30.6787 121.16 28.5296C121.16 20.9363 121.16 13.2952 121.16 5.70186C121.16 3.5528 120.286 1.1172 117.532 1.1172C117.532 1.02169 117.532 0.97393 117.532 0.878418C121.729 0.878418 121.947 0.878418 122.166 0.878418C122.515 0.878418 123.127 0.878418 124.176 0.878418C126.668 0.878418 126.93 3.26626 127.63 6.27495C128.679 10.8118 129.902 15.6353 131.214 21.1751C132.7 27.4312 133.836 33.3531 135.541 33.3531C138.076 33.3531 139.169 30.1534 139.082 25.8553C138.994 20.5543 136.896 15.7786 135.978 11.6715C134.754 5.9884 135.366 2.78869 136.372 0.878418C137.989 0.878418 139.388 0.878418 140.786 0.878418ZM165.41 28.0043C165.979 30.0101 167.246 31.9204 170 33.1143C170 33.1621 170 33.2576 170 33.3531C169.082 33.3531 167.946 33.3531 166.722 33.3531H163.4C163.312 33.3531 163.225 33.3531 163.181 33.3531C161.127 33.3531 159.903 33.3531 158.417 33.3531C158.417 33.2576 158.417 33.1621 158.417 33.1143C161.52 31.9681 162.482 29.9624 161.826 26.9537L161.345 24.9956C160.646 24.0883 157.98 20.602 156.756 20.3632C155.357 20.0767 154.614 20.602 153.871 24.6136C153.171 28.6729 153.74 33.5919 149.543 33.8307C145.391 34.0694 141.763 27.0014 144.911 20.0289C148.276 12.6266 152.559 9.28363 153.652 6.46597C154.264 4.93775 154.789 3.8871 155.138 3.26626C154.395 2.40664 153.434 1.69028 152.122 1.06944C152.122 1.02169 152.122 0.926173 152.122 0.878418C153.04 0.878418 154.177 0.878418 155.401 0.878418C156.144 0.878418 156.931 0.878418 157.717 0.878418C157.848 0.878418 157.936 0.878418 158.023 0.878418H158.635H158.723C158.81 0.878418 158.897 0.878418 158.941 0.878418C160.996 0.878418 162.219 0.878418 163.706 0.878418C163.706 0.926173 163.706 1.02169 163.706 1.06944C160.471 1.35599 159.16 1.97683 160.296 7.18233L165.41 28.0043ZM156.013 20.0289C158.067 19.7424 159.772 21.3184 160.733 22.6078L156.625 5.94065C156.406 5.22429 156.1 4.5557 155.663 3.8871C154.832 5.60635 152.647 9.99998 150.724 12.2923C148.319 15.11 146.527 21.7482 146.571 26.9059C146.615 31.9204 148.669 33.4486 150.155 33.4486C151.336 33.4486 151.947 30.8697 152.035 28.9595C152.122 25.6165 152.909 20.4587 156.013 20.0289Z" stroke="#2A2A2E" stroke-width="0.2" mask="url(#path-1-outside-1_916_7639)"/>
</svg>
