<svg width="67" height="14" viewBox="0 0 67 14" fill="none" xmlns="http://www.w3.org/2000/svg">
<mask id="path-1-outside-1_430_896" maskUnits="userSpaceOnUse" x="0" y="-0.294678" width="67" height="14" fill="black">
<rect fill="white" y="-0.294678" width="67" height="14"/>
<path d="M5.71019 0.705322C9.79123 0.705322 12.2228 3.14667 12.2228 7.08198C12.2228 11.0355 9.74021 13.0943 6.45838 13.0943C6.03327 13.0943 5.43812 13.0943 4.87698 13.0943C4.62192 13.0943 3.89073 13.0943 3.09153 13.0943C2.9895 13.0943 2.88748 13.0943 2.76845 13.0943C1.98625 13.0943 1.25506 13.0943 1 13.0943C1 13.076 1 13.0396 1 13.0032C2.05427 13.0032 2.39435 12.074 2.39435 11.2541C2.39435 11.1813 2.39435 7.42814 2.39435 5.69733C2.39435 4.0394 2.39435 2.6001 2.39435 2.54544C2.39435 1.72559 2.05427 0.796417 1 0.796417C1 0.759979 1 0.723541 1 0.705322C1.25506 0.705322 1.98625 0.705322 2.76845 0.705322C2.87047 0.705322 2.9895 0.705322 3.09153 0.705322C3.32959 0.705322 3.55065 0.705322 3.7547 0.705322C3.78871 0.705322 3.82271 0.705322 3.83972 0.705322C4.34985 0.705322 5.71019 0.705322 5.71019 0.705322ZM6.56041 12.8756C8.03978 12.8756 10.7605 11.7096 10.7605 7.08198C10.7605 4.82282 9.55317 0.887512 5.94825 0.887512C4.5709 0.887512 4.23082 0.887512 3.46562 0.887512C3.46562 0.960388 3.46562 4.11228 3.46562 5.84308C3.46562 7.28239 3.46562 9.8877 3.46562 10.8715C3.49963 11.4728 3.80571 12.8756 6.56041 12.8756ZM14.1932 0.705322C14.3123 0.705322 14.4143 0.705322 14.5163 0.705322C15.3155 0.705322 16.0467 0.705322 16.3018 0.705322C16.3018 0.723541 16.3018 0.759979 16.3018 0.796417C15.2475 0.796417 14.8904 1.72559 14.8904 2.54544C14.8904 2.61832 14.8904 4.11228 14.8904 5.84308C14.8904 7.62855 14.8904 11.1813 14.8904 11.2541C14.8904 12.074 15.2475 13.0032 16.3018 13.0032C16.3018 13.0396 16.3018 13.076 16.3018 13.0943C16.0467 13.0943 15.3155 13.0943 14.5163 13.0943C14.4143 13.0943 14.3123 13.0943 14.1932 13.0943C13.411 13.0943 12.6799 13.0943 12.4248 13.0943C12.4248 13.076 12.4248 13.0396 12.4248 13.0032C13.4791 13.0032 13.8191 12.074 13.8191 11.2541C13.8191 11.1813 13.8191 7.42814 13.8191 5.69733C13.8191 4.0394 13.8191 2.6001 13.8191 2.54544C13.8191 1.72559 13.4791 0.796417 12.4248 0.796417C12.4248 0.759979 12.4248 0.723541 12.4248 0.705322C12.6799 0.705322 13.411 0.705322 14.1932 0.705322ZM21.5485 6.77225C21.5485 8.37553 25.3065 12.3655 27.0919 13.0943C26.5478 13.0943 25.2214 13.0943 24.8984 13.0943C23.385 12.3473 21.3445 9.41401 21.3445 6.82691C21.3445 6.09815 21.5485 5.55158 22.3477 4.95035C23.385 3.29242 24.3032 3.67502 24.3032 2.67298C24.3032 1.70737 23.2149 0.887512 21.9396 0.887512C20.9704 1.10614 20.0351 1.05148 19.457 0.978607C19.457 1.48874 19.457 3.98474 19.457 5.58802L19.508 5.5698C19.508 7.3006 19.457 11.1813 19.457 11.2541C19.457 12.0558 19.8141 13.0032 20.8683 13.0032C20.8683 13.0214 20.8683 13.0578 20.8683 13.0943C20.6133 13.0943 19.8821 13.0943 19.0829 13.0943C18.9809 13.0943 18.8788 13.0943 18.7598 13.0943C17.9776 13.0943 17.2464 13.0943 16.9914 13.0943C16.9914 13.0578 16.9914 13.0214 16.9914 13.0032C18.0456 13.0032 18.4027 12.0558 18.4027 11.2541C18.4027 11.1813 18.4027 7.61033 18.4027 5.84308C18.4027 5.78843 18.4027 5.73377 18.4027 5.69733C18.4027 4.02118 18.4027 2.6001 18.4027 2.52722C18.4027 1.72559 18.0456 0.778197 16.9914 0.778197C16.9914 0.759979 16.9914 0.723541 16.9914 0.705322C17.2464 0.705322 17.9776 0.705322 18.7598 0.705322C18.8278 0.705322 18.8788 0.705322 18.9298 0.705322C18.9298 0.705322 18.9979 0.705322 19.0829 0.705322C19.338 0.705322 19.7801 0.705322 19.9501 0.705322C20.0351 0.705322 20.4092 0.705322 20.8683 0.705322C21.5655 0.705322 22.4667 0.705322 22.7728 0.705322C24.6263 0.705322 25.5955 1.59805 25.5955 2.72763C25.5955 3.45639 25.2555 4.11228 24.2522 4.76816C23.385 5.35117 21.5485 5.9524 21.5485 6.77225ZM34.2114 0.705322C34.4835 0.705322 36.9491 0.705322 37.6803 0.705322C37.6803 0.74176 37.6803 0.759979 37.6803 0.796417C36.9661 0.905731 36.4049 1.63449 35.8608 3.25598C35.3507 4.78638 33.1231 11.3452 32.766 12.4019C32.9191 12.8392 33.0041 13.0943 33.0041 13.0943H31.7118C31.7118 13.0943 29.2121 5.55158 28.3449 2.96448C27.9538 1.78024 27.3076 0.796417 26.2534 0.796417C26.2534 0.778197 26.2534 0.74176 26.2534 0.705322C26.4574 0.705322 30.9466 0.705322 31.1676 0.705322C31.1676 0.74176 31.1846 0.778197 31.1846 0.796417C30.1304 0.796417 29.1951 1.56162 29.7563 3.2742C30.3684 5.15076 31.9498 9.92414 32.647 12.0558C33.0041 10.744 34.3984 5.40583 34.8406 3.7479C35.3677 1.70737 35.0276 1.0697 34.2114 0.796417C34.2114 0.778197 34.2114 0.74176 34.2114 0.705322ZM44.4177 11.0537C44.6388 11.8189 45.1319 12.5477 46.2032 13.0032C46.2032 13.0214 46.2032 13.0578 46.2032 13.0943C45.8461 13.0943 45.404 13.0943 44.9278 13.0943H43.6355C43.6015 13.0943 43.5675 13.0943 43.5505 13.0943C42.7513 13.0943 42.2752 13.0943 41.697 13.0943C41.697 13.0578 41.697 13.0214 41.697 13.0032C42.9043 12.5659 43.2784 11.8007 43.0234 10.6529L42.8363 9.90592C42.5642 9.55976 41.527 8.22977 41.0509 8.13868C40.5067 8.02937 40.2177 8.22977 39.9286 9.76017C39.6565 11.3088 39.8776 13.1853 38.2452 13.2764C36.6297 13.3675 35.2184 10.6711 36.4427 8.01115C37.752 5.1872 39.4184 3.91187 39.8436 2.83695C40.0816 2.25394 40.2857 1.85312 40.4217 1.61627C40.1326 1.28833 39.7585 1.01505 39.2484 0.778197C39.2484 0.759979 39.2484 0.723541 39.2484 0.705322C39.6055 0.705322 40.0476 0.705322 40.5237 0.705322C40.8128 0.705322 41.1189 0.705322 41.425 0.705322C41.476 0.705322 41.51 0.705322 41.544 0.705322H41.782H41.8161C41.8501 0.705322 41.8841 0.705322 41.9011 0.705322C42.7003 0.705322 43.1764 0.705322 43.7546 0.705322C43.7546 0.723541 43.7546 0.759979 43.7546 0.778197C42.4962 0.887512 41.9861 1.12436 42.4282 3.11023L44.4177 11.0537ZM40.7618 8.01115C41.561 7.90183 42.2242 8.50306 42.5983 8.99497L40.9999 2.63654C40.9148 2.36325 40.7958 2.10819 40.6258 1.85312C40.3027 2.509 39.4525 4.18515 38.7043 5.05967C37.769 6.13459 37.0719 8.66703 37.0889 10.6347C37.1059 12.5477 37.9051 13.1307 38.4832 13.1307C38.9423 13.1307 39.1804 12.1469 39.2144 11.4181C39.2484 10.1428 39.5545 8.17512 40.7618 8.01115ZM55.3797 0.705322C54.9715 1.30655 54.2914 2.36325 54.8015 4.7135C55.2776 7.0091 55.6517 8.79456 55.4477 10.2339C55.2266 11.8918 54.4954 13.2947 53.1861 13.2947C51.4176 13.2947 51.0776 11.5274 50.2614 8.01115C49.8363 6.11637 49.4111 4.53131 48.85 2.10819C48.697 1.43408 48.5609 0.905731 48.3229 0.905731C48.1528 0.905731 48.2549 0.905731 48.0168 0.905731C48.0168 0.960388 48.0168 4.11228 48.0168 5.84308C48.0168 7.61033 48.0168 11.1995 48.0168 11.2541C48.0168 12.074 48.3569 13.0032 49.4281 13.0032C49.4281 13.0396 49.4281 13.076 49.4281 13.0943C49.1901 13.0943 48.5949 13.0943 47.8978 13.0943C47.8808 13.0943 47.8808 13.0943 47.8638 13.0943C47.1666 13.0943 46.5714 13.0943 46.3334 13.0943C46.3334 13.076 46.3334 13.0396 46.3334 13.0032C47.4046 13.0032 47.7447 12.074 47.7447 11.2541C47.7447 8.35731 47.7447 5.44227 47.7447 2.54544C47.7447 1.72559 47.4046 0.796417 46.3334 0.796417C46.3334 0.759979 46.3334 0.74176 46.3334 0.705322C47.9658 0.705322 48.0508 0.705322 48.1358 0.705322C48.2719 0.705322 48.5099 0.705322 48.918 0.705322C49.8873 0.705322 49.9893 1.61627 50.2614 2.76407C50.6695 4.49488 51.1456 6.335 51.6557 8.4484C52.2339 10.8351 52.676 13.0943 53.3391 13.0943C54.3254 13.0943 54.7505 11.8736 54.7165 10.2339C54.6825 8.21156 53.8663 6.38965 53.5092 4.82282C53.0331 2.65476 53.2711 1.43408 53.6622 0.705322C54.2914 0.705322 54.8355 0.705322 55.3797 0.705322ZM64.9589 11.0537C65.1799 11.8189 65.673 12.5477 66.7443 13.0032C66.7443 13.0214 66.7443 13.0578 66.7443 13.0943C66.3872 13.0943 65.9451 13.0943 65.469 13.0943H64.1767C64.1427 13.0943 64.1086 13.0943 64.0916 13.0943C63.2924 13.0943 62.8163 13.0943 62.2382 13.0943C62.2382 13.0578 62.2382 13.0214 62.2382 13.0032C63.4455 12.5659 63.8196 11.8007 63.5645 10.6529L63.3775 9.90592C63.1054 9.55976 62.0681 8.22977 61.592 8.13868C61.0479 8.02937 60.7588 8.22977 60.4697 9.76017C60.1977 11.3088 60.4187 13.1853 58.7863 13.2764C57.1711 13.3675 55.7597 10.6711 56.984 8.01115C58.2932 5.1872 59.9596 3.91187 60.3847 2.83695C60.6228 2.25394 60.8268 1.85312 60.9628 1.61627C60.6738 1.28833 60.2997 1.01505 59.7896 0.778197C59.7896 0.759979 59.7896 0.723541 59.7896 0.705322C60.1466 0.705322 60.5888 0.705322 61.0649 0.705322C61.3539 0.705322 61.66 0.705322 61.9661 0.705322C62.0171 0.705322 62.0511 0.705322 62.0851 0.705322H62.3232H62.3572C62.3912 0.705322 62.4252 0.705322 62.4422 0.705322C63.2414 0.705322 63.7175 0.705322 64.2957 0.705322C64.2957 0.723541 64.2957 0.759979 64.2957 0.778197C63.0374 0.887512 62.5272 1.12436 62.9694 3.11023L64.9589 11.0537ZM61.3029 8.01115C62.1021 7.90183 62.7653 8.50306 63.1394 8.99497L61.541 2.63654C61.456 2.36325 61.3369 2.10819 61.1669 1.85312C60.8438 2.509 59.9936 4.18515 59.2454 5.05967C58.3102 6.13459 57.613 8.66703 57.63 10.6347C57.647 12.5477 58.4462 13.1307 59.0244 13.1307C59.4835 13.1307 59.7215 12.1469 59.7555 11.4181C59.7896 10.1428 60.0956 8.17512 61.3029 8.01115Z"/>
</mask>
<path d="M5.71019 0.705322C9.79123 0.705322 12.2228 3.14667 12.2228 7.08198C12.2228 11.0355 9.74021 13.0943 6.45838 13.0943C6.03327 13.0943 5.43812 13.0943 4.87698 13.0943C4.62192 13.0943 3.89073 13.0943 3.09153 13.0943C2.9895 13.0943 2.88748 13.0943 2.76845 13.0943C1.98625 13.0943 1.25506 13.0943 1 13.0943C1 13.076 1 13.0396 1 13.0032C2.05427 13.0032 2.39435 12.074 2.39435 11.2541C2.39435 11.1813 2.39435 7.42814 2.39435 5.69733C2.39435 4.0394 2.39435 2.6001 2.39435 2.54544C2.39435 1.72559 2.05427 0.796417 1 0.796417C1 0.759979 1 0.723541 1 0.705322C1.25506 0.705322 1.98625 0.705322 2.76845 0.705322C2.87047 0.705322 2.9895 0.705322 3.09153 0.705322C3.32959 0.705322 3.55065 0.705322 3.7547 0.705322C3.78871 0.705322 3.82271 0.705322 3.83972 0.705322C4.34985 0.705322 5.71019 0.705322 5.71019 0.705322ZM6.56041 12.8756C8.03978 12.8756 10.7605 11.7096 10.7605 7.08198C10.7605 4.82282 9.55317 0.887512 5.94825 0.887512C4.5709 0.887512 4.23082 0.887512 3.46562 0.887512C3.46562 0.960388 3.46562 4.11228 3.46562 5.84308C3.46562 7.28239 3.46562 9.8877 3.46562 10.8715C3.49963 11.4728 3.80571 12.8756 6.56041 12.8756ZM14.1932 0.705322C14.3123 0.705322 14.4143 0.705322 14.5163 0.705322C15.3155 0.705322 16.0467 0.705322 16.3018 0.705322C16.3018 0.723541 16.3018 0.759979 16.3018 0.796417C15.2475 0.796417 14.8904 1.72559 14.8904 2.54544C14.8904 2.61832 14.8904 4.11228 14.8904 5.84308C14.8904 7.62855 14.8904 11.1813 14.8904 11.2541C14.8904 12.074 15.2475 13.0032 16.3018 13.0032C16.3018 13.0396 16.3018 13.076 16.3018 13.0943C16.0467 13.0943 15.3155 13.0943 14.5163 13.0943C14.4143 13.0943 14.3123 13.0943 14.1932 13.0943C13.411 13.0943 12.6799 13.0943 12.4248 13.0943C12.4248 13.076 12.4248 13.0396 12.4248 13.0032C13.4791 13.0032 13.8191 12.074 13.8191 11.2541C13.8191 11.1813 13.8191 7.42814 13.8191 5.69733C13.8191 4.0394 13.8191 2.6001 13.8191 2.54544C13.8191 1.72559 13.4791 0.796417 12.4248 0.796417C12.4248 0.759979 12.4248 0.723541 12.4248 0.705322C12.6799 0.705322 13.411 0.705322 14.1932 0.705322ZM21.5485 6.77225C21.5485 8.37553 25.3065 12.3655 27.0919 13.0943C26.5478 13.0943 25.2214 13.0943 24.8984 13.0943C23.385 12.3473 21.3445 9.41401 21.3445 6.82691C21.3445 6.09815 21.5485 5.55158 22.3477 4.95035C23.385 3.29242 24.3032 3.67502 24.3032 2.67298C24.3032 1.70737 23.2149 0.887512 21.9396 0.887512C20.9704 1.10614 20.0351 1.05148 19.457 0.978607C19.457 1.48874 19.457 3.98474 19.457 5.58802L19.508 5.5698C19.508 7.3006 19.457 11.1813 19.457 11.2541C19.457 12.0558 19.8141 13.0032 20.8683 13.0032C20.8683 13.0214 20.8683 13.0578 20.8683 13.0943C20.6133 13.0943 19.8821 13.0943 19.0829 13.0943C18.9809 13.0943 18.8788 13.0943 18.7598 13.0943C17.9776 13.0943 17.2464 13.0943 16.9914 13.0943C16.9914 13.0578 16.9914 13.0214 16.9914 13.0032C18.0456 13.0032 18.4027 12.0558 18.4027 11.2541C18.4027 11.1813 18.4027 7.61033 18.4027 5.84308C18.4027 5.78843 18.4027 5.73377 18.4027 5.69733C18.4027 4.02118 18.4027 2.6001 18.4027 2.52722C18.4027 1.72559 18.0456 0.778197 16.9914 0.778197C16.9914 0.759979 16.9914 0.723541 16.9914 0.705322C17.2464 0.705322 17.9776 0.705322 18.7598 0.705322C18.8278 0.705322 18.8788 0.705322 18.9298 0.705322C18.9298 0.705322 18.9979 0.705322 19.0829 0.705322C19.338 0.705322 19.7801 0.705322 19.9501 0.705322C20.0351 0.705322 20.4092 0.705322 20.8683 0.705322C21.5655 0.705322 22.4667 0.705322 22.7728 0.705322C24.6263 0.705322 25.5955 1.59805 25.5955 2.72763C25.5955 3.45639 25.2555 4.11228 24.2522 4.76816C23.385 5.35117 21.5485 5.9524 21.5485 6.77225ZM34.2114 0.705322C34.4835 0.705322 36.9491 0.705322 37.6803 0.705322C37.6803 0.74176 37.6803 0.759979 37.6803 0.796417C36.9661 0.905731 36.4049 1.63449 35.8608 3.25598C35.3507 4.78638 33.1231 11.3452 32.766 12.4019C32.9191 12.8392 33.0041 13.0943 33.0041 13.0943H31.7118C31.7118 13.0943 29.2121 5.55158 28.3449 2.96448C27.9538 1.78024 27.3076 0.796417 26.2534 0.796417C26.2534 0.778197 26.2534 0.74176 26.2534 0.705322C26.4574 0.705322 30.9466 0.705322 31.1676 0.705322C31.1676 0.74176 31.1846 0.778197 31.1846 0.796417C30.1304 0.796417 29.1951 1.56162 29.7563 3.2742C30.3684 5.15076 31.9498 9.92414 32.647 12.0558C33.0041 10.744 34.3984 5.40583 34.8406 3.7479C35.3677 1.70737 35.0276 1.0697 34.2114 0.796417C34.2114 0.778197 34.2114 0.74176 34.2114 0.705322ZM44.4177 11.0537C44.6388 11.8189 45.1319 12.5477 46.2032 13.0032C46.2032 13.0214 46.2032 13.0578 46.2032 13.0943C45.8461 13.0943 45.404 13.0943 44.9278 13.0943H43.6355C43.6015 13.0943 43.5675 13.0943 43.5505 13.0943C42.7513 13.0943 42.2752 13.0943 41.697 13.0943C41.697 13.0578 41.697 13.0214 41.697 13.0032C42.9043 12.5659 43.2784 11.8007 43.0234 10.6529L42.8363 9.90592C42.5642 9.55976 41.527 8.22977 41.0509 8.13868C40.5067 8.02937 40.2177 8.22977 39.9286 9.76017C39.6565 11.3088 39.8776 13.1853 38.2452 13.2764C36.6297 13.3675 35.2184 10.6711 36.4427 8.01115C37.752 5.1872 39.4184 3.91187 39.8436 2.83695C40.0816 2.25394 40.2857 1.85312 40.4217 1.61627C40.1326 1.28833 39.7585 1.01505 39.2484 0.778197C39.2484 0.759979 39.2484 0.723541 39.2484 0.705322C39.6055 0.705322 40.0476 0.705322 40.5237 0.705322C40.8128 0.705322 41.1189 0.705322 41.425 0.705322C41.476 0.705322 41.51 0.705322 41.544 0.705322H41.782H41.8161C41.8501 0.705322 41.8841 0.705322 41.9011 0.705322C42.7003 0.705322 43.1764 0.705322 43.7546 0.705322C43.7546 0.723541 43.7546 0.759979 43.7546 0.778197C42.4962 0.887512 41.9861 1.12436 42.4282 3.11023L44.4177 11.0537ZM40.7618 8.01115C41.561 7.90183 42.2242 8.50306 42.5983 8.99497L40.9999 2.63654C40.9148 2.36325 40.7958 2.10819 40.6258 1.85312C40.3027 2.509 39.4525 4.18515 38.7043 5.05967C37.769 6.13459 37.0719 8.66703 37.0889 10.6347C37.1059 12.5477 37.9051 13.1307 38.4832 13.1307C38.9423 13.1307 39.1804 12.1469 39.2144 11.4181C39.2484 10.1428 39.5545 8.17512 40.7618 8.01115ZM55.3797 0.705322C54.9715 1.30655 54.2914 2.36325 54.8015 4.7135C55.2776 7.0091 55.6517 8.79456 55.4477 10.2339C55.2266 11.8918 54.4954 13.2947 53.1861 13.2947C51.4176 13.2947 51.0776 11.5274 50.2614 8.01115C49.8363 6.11637 49.4111 4.53131 48.85 2.10819C48.697 1.43408 48.5609 0.905731 48.3229 0.905731C48.1528 0.905731 48.2549 0.905731 48.0168 0.905731C48.0168 0.960388 48.0168 4.11228 48.0168 5.84308C48.0168 7.61033 48.0168 11.1995 48.0168 11.2541C48.0168 12.074 48.3569 13.0032 49.4281 13.0032C49.4281 13.0396 49.4281 13.076 49.4281 13.0943C49.1901 13.0943 48.5949 13.0943 47.8978 13.0943C47.8808 13.0943 47.8808 13.0943 47.8638 13.0943C47.1666 13.0943 46.5714 13.0943 46.3334 13.0943C46.3334 13.076 46.3334 13.0396 46.3334 13.0032C47.4046 13.0032 47.7447 12.074 47.7447 11.2541C47.7447 8.35731 47.7447 5.44227 47.7447 2.54544C47.7447 1.72559 47.4046 0.796417 46.3334 0.796417C46.3334 0.759979 46.3334 0.74176 46.3334 0.705322C47.9658 0.705322 48.0508 0.705322 48.1358 0.705322C48.2719 0.705322 48.5099 0.705322 48.918 0.705322C49.8873 0.705322 49.9893 1.61627 50.2614 2.76407C50.6695 4.49488 51.1456 6.335 51.6557 8.4484C52.2339 10.8351 52.676 13.0943 53.3391 13.0943C54.3254 13.0943 54.7505 11.8736 54.7165 10.2339C54.6825 8.21156 53.8663 6.38965 53.5092 4.82282C53.0331 2.65476 53.2711 1.43408 53.6622 0.705322C54.2914 0.705322 54.8355 0.705322 55.3797 0.705322ZM64.9589 11.0537C65.1799 11.8189 65.673 12.5477 66.7443 13.0032C66.7443 13.0214 66.7443 13.0578 66.7443 13.0943C66.3872 13.0943 65.9451 13.0943 65.469 13.0943H64.1767C64.1427 13.0943 64.1086 13.0943 64.0916 13.0943C63.2924 13.0943 62.8163 13.0943 62.2382 13.0943C62.2382 13.0578 62.2382 13.0214 62.2382 13.0032C63.4455 12.5659 63.8196 11.8007 63.5645 10.6529L63.3775 9.90592C63.1054 9.55976 62.0681 8.22977 61.592 8.13868C61.0479 8.02937 60.7588 8.22977 60.4697 9.76017C60.1977 11.3088 60.4187 13.1853 58.7863 13.2764C57.1711 13.3675 55.7597 10.6711 56.984 8.01115C58.2932 5.1872 59.9596 3.91187 60.3847 2.83695C60.6228 2.25394 60.8268 1.85312 60.9628 1.61627C60.6738 1.28833 60.2997 1.01505 59.7896 0.778197C59.7896 0.759979 59.7896 0.723541 59.7896 0.705322C60.1466 0.705322 60.5888 0.705322 61.0649 0.705322C61.3539 0.705322 61.66 0.705322 61.9661 0.705322C62.0171 0.705322 62.0511 0.705322 62.0851 0.705322H62.3232H62.3572C62.3912 0.705322 62.4252 0.705322 62.4422 0.705322C63.2414 0.705322 63.7175 0.705322 64.2957 0.705322C64.2957 0.723541 64.2957 0.759979 64.2957 0.778197C63.0374 0.887512 62.5272 1.12436 62.9694 3.11023L64.9589 11.0537ZM61.3029 8.01115C62.1021 7.90183 62.7653 8.50306 63.1394 8.99497L61.541 2.63654C61.456 2.36325 61.3369 2.10819 61.1669 1.85312C60.8438 2.509 59.9936 4.18515 59.2454 5.05967C58.3102 6.13459 57.613 8.66703 57.63 10.6347C57.647 12.5477 58.4462 13.1307 59.0244 13.1307C59.4835 13.1307 59.7215 12.1469 59.7555 11.4181C59.7896 10.1428 60.0956 8.17512 61.3029 8.01115Z" fill="white"/>
<path d="M5.71019 0.705322C9.79123 0.705322 12.2228 3.14667 12.2228 7.08198C12.2228 11.0355 9.74021 13.0943 6.45838 13.0943C6.03327 13.0943 5.43812 13.0943 4.87698 13.0943C4.62192 13.0943 3.89073 13.0943 3.09153 13.0943C2.9895 13.0943 2.88748 13.0943 2.76845 13.0943C1.98625 13.0943 1.25506 13.0943 1 13.0943C1 13.076 1 13.0396 1 13.0032C2.05427 13.0032 2.39435 12.074 2.39435 11.2541C2.39435 11.1813 2.39435 7.42814 2.39435 5.69733C2.39435 4.0394 2.39435 2.6001 2.39435 2.54544C2.39435 1.72559 2.05427 0.796417 1 0.796417C1 0.759979 1 0.723541 1 0.705322C1.25506 0.705322 1.98625 0.705322 2.76845 0.705322C2.87047 0.705322 2.9895 0.705322 3.09153 0.705322C3.32959 0.705322 3.55065 0.705322 3.7547 0.705322C3.78871 0.705322 3.82271 0.705322 3.83972 0.705322C4.34985 0.705322 5.71019 0.705322 5.71019 0.705322ZM6.56041 12.8756C8.03978 12.8756 10.7605 11.7096 10.7605 7.08198C10.7605 4.82282 9.55317 0.887512 5.94825 0.887512C4.5709 0.887512 4.23082 0.887512 3.46562 0.887512C3.46562 0.960388 3.46562 4.11228 3.46562 5.84308C3.46562 7.28239 3.46562 9.8877 3.46562 10.8715C3.49963 11.4728 3.80571 12.8756 6.56041 12.8756ZM14.1932 0.705322C14.3123 0.705322 14.4143 0.705322 14.5163 0.705322C15.3155 0.705322 16.0467 0.705322 16.3018 0.705322C16.3018 0.723541 16.3018 0.759979 16.3018 0.796417C15.2475 0.796417 14.8904 1.72559 14.8904 2.54544C14.8904 2.61832 14.8904 4.11228 14.8904 5.84308C14.8904 7.62855 14.8904 11.1813 14.8904 11.2541C14.8904 12.074 15.2475 13.0032 16.3018 13.0032C16.3018 13.0396 16.3018 13.076 16.3018 13.0943C16.0467 13.0943 15.3155 13.0943 14.5163 13.0943C14.4143 13.0943 14.3123 13.0943 14.1932 13.0943C13.411 13.0943 12.6799 13.0943 12.4248 13.0943C12.4248 13.076 12.4248 13.0396 12.4248 13.0032C13.4791 13.0032 13.8191 12.074 13.8191 11.2541C13.8191 11.1813 13.8191 7.42814 13.8191 5.69733C13.8191 4.0394 13.8191 2.6001 13.8191 2.54544C13.8191 1.72559 13.4791 0.796417 12.4248 0.796417C12.4248 0.759979 12.4248 0.723541 12.4248 0.705322C12.6799 0.705322 13.411 0.705322 14.1932 0.705322ZM21.5485 6.77225C21.5485 8.37553 25.3065 12.3655 27.0919 13.0943C26.5478 13.0943 25.2214 13.0943 24.8984 13.0943C23.385 12.3473 21.3445 9.41401 21.3445 6.82691C21.3445 6.09815 21.5485 5.55158 22.3477 4.95035C23.385 3.29242 24.3032 3.67502 24.3032 2.67298C24.3032 1.70737 23.2149 0.887512 21.9396 0.887512C20.9704 1.10614 20.0351 1.05148 19.457 0.978607C19.457 1.48874 19.457 3.98474 19.457 5.58802L19.508 5.5698C19.508 7.3006 19.457 11.1813 19.457 11.2541C19.457 12.0558 19.8141 13.0032 20.8683 13.0032C20.8683 13.0214 20.8683 13.0578 20.8683 13.0943C20.6133 13.0943 19.8821 13.0943 19.0829 13.0943C18.9809 13.0943 18.8788 13.0943 18.7598 13.0943C17.9776 13.0943 17.2464 13.0943 16.9914 13.0943C16.9914 13.0578 16.9914 13.0214 16.9914 13.0032C18.0456 13.0032 18.4027 12.0558 18.4027 11.2541C18.4027 11.1813 18.4027 7.61033 18.4027 5.84308C18.4027 5.78843 18.4027 5.73377 18.4027 5.69733C18.4027 4.02118 18.4027 2.6001 18.4027 2.52722C18.4027 1.72559 18.0456 0.778197 16.9914 0.778197C16.9914 0.759979 16.9914 0.723541 16.9914 0.705322C17.2464 0.705322 17.9776 0.705322 18.7598 0.705322C18.8278 0.705322 18.8788 0.705322 18.9298 0.705322C18.9298 0.705322 18.9979 0.705322 19.0829 0.705322C19.338 0.705322 19.7801 0.705322 19.9501 0.705322C20.0351 0.705322 20.4092 0.705322 20.8683 0.705322C21.5655 0.705322 22.4667 0.705322 22.7728 0.705322C24.6263 0.705322 25.5955 1.59805 25.5955 2.72763C25.5955 3.45639 25.2555 4.11228 24.2522 4.76816C23.385 5.35117 21.5485 5.9524 21.5485 6.77225ZM34.2114 0.705322C34.4835 0.705322 36.9491 0.705322 37.6803 0.705322C37.6803 0.74176 37.6803 0.759979 37.6803 0.796417C36.9661 0.905731 36.4049 1.63449 35.8608 3.25598C35.3507 4.78638 33.1231 11.3452 32.766 12.4019C32.9191 12.8392 33.0041 13.0943 33.0041 13.0943H31.7118C31.7118 13.0943 29.2121 5.55158 28.3449 2.96448C27.9538 1.78024 27.3076 0.796417 26.2534 0.796417C26.2534 0.778197 26.2534 0.74176 26.2534 0.705322C26.4574 0.705322 30.9466 0.705322 31.1676 0.705322C31.1676 0.74176 31.1846 0.778197 31.1846 0.796417C30.1304 0.796417 29.1951 1.56162 29.7563 3.2742C30.3684 5.15076 31.9498 9.92414 32.647 12.0558C33.0041 10.744 34.3984 5.40583 34.8406 3.7479C35.3677 1.70737 35.0276 1.0697 34.2114 0.796417C34.2114 0.778197 34.2114 0.74176 34.2114 0.705322ZM44.4177 11.0537C44.6388 11.8189 45.1319 12.5477 46.2032 13.0032C46.2032 13.0214 46.2032 13.0578 46.2032 13.0943C45.8461 13.0943 45.404 13.0943 44.9278 13.0943H43.6355C43.6015 13.0943 43.5675 13.0943 43.5505 13.0943C42.7513 13.0943 42.2752 13.0943 41.697 13.0943C41.697 13.0578 41.697 13.0214 41.697 13.0032C42.9043 12.5659 43.2784 11.8007 43.0234 10.6529L42.8363 9.90592C42.5642 9.55976 41.527 8.22977 41.0509 8.13868C40.5067 8.02937 40.2177 8.22977 39.9286 9.76017C39.6565 11.3088 39.8776 13.1853 38.2452 13.2764C36.6297 13.3675 35.2184 10.6711 36.4427 8.01115C37.752 5.1872 39.4184 3.91187 39.8436 2.83695C40.0816 2.25394 40.2857 1.85312 40.4217 1.61627C40.1326 1.28833 39.7585 1.01505 39.2484 0.778197C39.2484 0.759979 39.2484 0.723541 39.2484 0.705322C39.6055 0.705322 40.0476 0.705322 40.5237 0.705322C40.8128 0.705322 41.1189 0.705322 41.425 0.705322C41.476 0.705322 41.51 0.705322 41.544 0.705322H41.782H41.8161C41.8501 0.705322 41.8841 0.705322 41.9011 0.705322C42.7003 0.705322 43.1764 0.705322 43.7546 0.705322C43.7546 0.723541 43.7546 0.759979 43.7546 0.778197C42.4962 0.887512 41.9861 1.12436 42.4282 3.11023L44.4177 11.0537ZM40.7618 8.01115C41.561 7.90183 42.2242 8.50306 42.5983 8.99497L40.9999 2.63654C40.9148 2.36325 40.7958 2.10819 40.6258 1.85312C40.3027 2.509 39.4525 4.18515 38.7043 5.05967C37.769 6.13459 37.0719 8.66703 37.0889 10.6347C37.1059 12.5477 37.9051 13.1307 38.4832 13.1307C38.9423 13.1307 39.1804 12.1469 39.2144 11.4181C39.2484 10.1428 39.5545 8.17512 40.7618 8.01115ZM55.3797 0.705322C54.9715 1.30655 54.2914 2.36325 54.8015 4.7135C55.2776 7.0091 55.6517 8.79456 55.4477 10.2339C55.2266 11.8918 54.4954 13.2947 53.1861 13.2947C51.4176 13.2947 51.0776 11.5274 50.2614 8.01115C49.8363 6.11637 49.4111 4.53131 48.85 2.10819C48.697 1.43408 48.5609 0.905731 48.3229 0.905731C48.1528 0.905731 48.2549 0.905731 48.0168 0.905731C48.0168 0.960388 48.0168 4.11228 48.0168 5.84308C48.0168 7.61033 48.0168 11.1995 48.0168 11.2541C48.0168 12.074 48.3569 13.0032 49.4281 13.0032C49.4281 13.0396 49.4281 13.076 49.4281 13.0943C49.1901 13.0943 48.5949 13.0943 47.8978 13.0943C47.8808 13.0943 47.8808 13.0943 47.8638 13.0943C47.1666 13.0943 46.5714 13.0943 46.3334 13.0943C46.3334 13.076 46.3334 13.0396 46.3334 13.0032C47.4046 13.0032 47.7447 12.074 47.7447 11.2541C47.7447 8.35731 47.7447 5.44227 47.7447 2.54544C47.7447 1.72559 47.4046 0.796417 46.3334 0.796417C46.3334 0.759979 46.3334 0.74176 46.3334 0.705322C47.9658 0.705322 48.0508 0.705322 48.1358 0.705322C48.2719 0.705322 48.5099 0.705322 48.918 0.705322C49.8873 0.705322 49.9893 1.61627 50.2614 2.76407C50.6695 4.49488 51.1456 6.335 51.6557 8.4484C52.2339 10.8351 52.676 13.0943 53.3391 13.0943C54.3254 13.0943 54.7505 11.8736 54.7165 10.2339C54.6825 8.21156 53.8663 6.38965 53.5092 4.82282C53.0331 2.65476 53.2711 1.43408 53.6622 0.705322C54.2914 0.705322 54.8355 0.705322 55.3797 0.705322ZM64.9589 11.0537C65.1799 11.8189 65.673 12.5477 66.7443 13.0032C66.7443 13.0214 66.7443 13.0578 66.7443 13.0943C66.3872 13.0943 65.9451 13.0943 65.469 13.0943H64.1767C64.1427 13.0943 64.1086 13.0943 64.0916 13.0943C63.2924 13.0943 62.8163 13.0943 62.2382 13.0943C62.2382 13.0578 62.2382 13.0214 62.2382 13.0032C63.4455 12.5659 63.8196 11.8007 63.5645 10.6529L63.3775 9.90592C63.1054 9.55976 62.0681 8.22977 61.592 8.13868C61.0479 8.02937 60.7588 8.22977 60.4697 9.76017C60.1977 11.3088 60.4187 13.1853 58.7863 13.2764C57.1711 13.3675 55.7597 10.6711 56.984 8.01115C58.2932 5.1872 59.9596 3.91187 60.3847 2.83695C60.6228 2.25394 60.8268 1.85312 60.9628 1.61627C60.6738 1.28833 60.2997 1.01505 59.7896 0.778197C59.7896 0.759979 59.7896 0.723541 59.7896 0.705322C60.1466 0.705322 60.5888 0.705322 61.0649 0.705322C61.3539 0.705322 61.66 0.705322 61.9661 0.705322C62.0171 0.705322 62.0511 0.705322 62.0851 0.705322H62.3232H62.3572C62.3912 0.705322 62.4252 0.705322 62.4422 0.705322C63.2414 0.705322 63.7175 0.705322 64.2957 0.705322C64.2957 0.723541 64.2957 0.759979 64.2957 0.778197C63.0374 0.887512 62.5272 1.12436 62.9694 3.11023L64.9589 11.0537ZM61.3029 8.01115C62.1021 7.90183 62.7653 8.50306 63.1394 8.99497L61.541 2.63654C61.456 2.36325 61.3369 2.10819 61.1669 1.85312C60.8438 2.509 59.9936 4.18515 59.2454 5.05967C58.3102 6.13459 57.613 8.66703 57.63 10.6347C57.647 12.5477 58.4462 13.1307 59.0244 13.1307C59.4835 13.1307 59.7215 12.1469 59.7555 11.4181C59.7896 10.1428 60.0956 8.17512 61.3029 8.01115Z" stroke="white" stroke-width="0.2" mask="url(#path-1-outside-1_430_896)"/>
</svg>
