<svg width="61" height="67" viewBox="0 0 61 67" fill="none" xmlns="http://www.w3.org/2000/svg">
<path d="M25.9287 1.25C36.4447 1.25 44.9227 4.40015 50.7734 10.1719C56.6252 15.9448 59.7656 24.2581 59.7656 34.417C59.7656 44.6274 56.5571 52.4757 51.1494 57.7715C45.7459 63.0632 38.2228 65.7314 29.7305 65.7314H1.25V63.7686H2C4.41399 63.7686 5.95238 62.7241 6.9209 61.2275C7.91634 59.6893 8.33394 57.6261 8.33398 55.627V11.3545C8.33397 9.35518 7.91652 7.29131 6.9209 5.75293C5.95237 4.25653 4.41387 3.21289 2 3.21289H1.25V1.25H25.9287ZM15.2764 53.667C15.3613 55.1082 15.7724 57.4248 17.7354 59.3926C19.7073 61.3692 23.3724 63.12 30.248 63.1201C33.8287 63.1201 38.9651 61.7022 43.2041 57.4365C47.4299 53.184 50.8359 46.0271 50.8359 34.417C50.8359 28.7811 49.3255 21.047 45.585 14.748C41.8601 8.47556 35.965 3.67583 27.1387 3.67578H15.2764V53.667Z" fill="url(#paint0_linear_2094_8161)" stroke="url(#paint1_linear_2094_8161)" stroke-width="1.5"/>
<defs>
<linearGradient id="paint0_linear_2094_8161" x1="30.5076" y1="2" x2="30.5076" y2="64.9812" gradientUnits="userSpaceOnUse">
<stop stop-color="#D57C77"/>
<stop offset="1" stop-color="#FCF2F2"/>
</linearGradient>
<linearGradient id="paint1_linear_2094_8161" x1="30.5076" y1="2" x2="30.5076" y2="64.9812" gradientUnits="userSpaceOnUse">
<stop stop-color="#D57C77"/>
<stop offset="1" stop-color="#FCF2F2"/>
</linearGradient>
</defs>
</svg>
