<svg width="40" height="12" viewBox="0 0 40 12" fill="none" xmlns="http://www.w3.org/2000/svg">
<path d="M10.3208 0.175049H14.5931L4.28326 11.825H0L10.3208 0.175049Z" fill="black"/>
<path d="M19.0738 0.175049H23.931L13.6361 11.825H8.75293L19.0738 0.175049Z" fill="#EF7063"/>
<path d="M7.16396 9.74463H10.6594L8.7528 11.825H5.36328L7.16396 9.74463Z" fill="#EF7063"/>
<path d="M28.8782 7.76839L35.3395 5.37598L29.6771 11.8251H25.3418L28.8782 7.76839Z" fill="#EF7063"/>
<path d="M15.6376 0.175049H19.133L18.1797 1.21523L17.2264 2.25541H13.8369L15.6376 0.175049Z" fill="#EF7063"/>
<path d="M27.1834 5.37598H35.3518L28.984 7.87241H24.959L27.1834 5.37598Z" fill="#EF7063"/>
<path d="M30.6791 0.175049H40.0002L38.1996 2.25541H28.7725L30.6791 0.175049Z" fill="#EF7063"/>
<path d="M26.2694 0.175049H30.6788L20.4043 11.825H15.9556L26.2694 0.175049Z" fill="black"/>
</svg>
