<svg width="40" height="22" viewBox="0 0 40 22" fill="none" xmlns="http://www.w3.org/2000/svg">
<g clip-path="url(#clip0_1313_9337)">
<path d="M10.254 0H14.4986L4.25553 11.3052H0L10.254 0Z" fill="#A1A1AA"/>
<path d="M18.9504 0H23.7762L13.5479 11.3052H8.69641L18.9504 0Z" fill="#A1A1AA"/>
<path d="M7.11754 9.28613H10.5904L8.69606 11.3049H5.32849L7.11754 9.28613Z" fill="#A1A1AA"/>
<path d="M28.6911 7.36844L35.1105 5.04688L29.4848 11.3051H25.1776L28.6911 7.36844Z" fill="#A1A1AA"/>
<path d="M15.5365 0H19.0093L18.0622 1.00939L17.115 2.01878H13.7474L15.5365 0Z" fill="#A1A1AA"/>
<path d="M27.0072 5.04688H35.1228L28.7962 7.46942H24.7972L27.0072 5.04688Z" fill="#A1A1AA"/>
<path d="M30.4804 0H39.741L37.9521 2.01878H28.5861L30.4804 0Z" fill="#A1A1AA"/>
<path d="M26.0992 0H30.4801L20.2721 11.3052H15.8522L26.0992 0Z" fill="#A1A1AA"/>
<path d="M13.0026 17.9361V15.4608H13.5281V17.5074H14.5918V17.9361H13.0026ZM15.3522 15.4608V17.9361H14.8267V15.4608H15.3522ZM17.6117 15.4608L16.9036 16.6656L17.7078 17.9361H17.1279L16.4775 16.8815H16.2533V17.9361H15.7278V15.4608H16.2533V16.4528H16.4775L17.0382 15.4608H17.6117ZM17.8898 17.9361V15.4608H19.4629V15.8895H18.4152V16.4528H19.3315V16.8815H18.4152V17.5074H19.4789V17.9361H17.8898ZM19.789 17.9361V15.4608H20.3144V17.5074H21.3781V17.9361H19.789ZM22.1385 15.4608V17.9361H21.6131V15.4608H22.1385ZM24.5006 16.6969C24.5006 17.0661 24.4493 17.401 24.2603 17.6451C24.0969 17.8579 23.8502 17.9799 23.4817 17.9799C23.1101 17.9799 22.8666 17.8579 22.7032 17.6451C22.5141 17.401 22.4597 17.0661 22.4597 16.6969C22.4597 16.3308 22.5141 15.9959 22.7032 15.7518C22.8666 15.539 23.1101 15.417 23.4817 15.417C23.8502 15.417 24.0969 15.539 24.2603 15.7518C24.4493 15.9959 24.5006 16.3308 24.5006 16.6969ZM22.9883 16.6969C22.9883 17.063 23.0268 17.2476 23.1165 17.3759C23.1934 17.4886 23.3151 17.548 23.4817 17.548C23.6483 17.548 23.7701 17.4886 23.847 17.3759C23.9367 17.2476 23.9719 17.063 23.9719 16.6969C23.9719 16.3339 23.9367 16.1492 23.847 16.0209C23.7701 15.9083 23.6483 15.8488 23.4817 15.8488C23.3151 15.8488 23.1934 15.9083 23.1165 16.0209C23.0268 16.1492 22.9883 16.3339 22.9883 16.6969ZM26.1528 17.9361L25.3486 16.3495V17.9361H24.8232V15.4608H25.355L26.1592 17.0505V15.4608H26.6879V17.9361H26.1528ZM8.77744 20.49C8.77744 19.8547 8.63007 19.6763 8.27445 19.6763H7.88999V21.3098H8.27445C8.63007 21.3098 8.77744 21.1283 8.77744 20.49ZM8.30649 21.7292H7.36133V19.2539H8.30649C9.1395 19.2539 9.30288 19.8297 9.30288 20.49C9.30288 21.1565 9.1395 21.7292 8.30649 21.7292ZM11.6162 20.49C11.6162 20.8592 11.5649 21.1941 11.3759 21.4382C11.2125 21.651 10.9658 21.773 10.5974 21.773C10.2257 21.773 9.98222 21.651 9.8188 21.4382C9.62979 21.1941 9.57531 20.8592 9.57531 20.49C9.57531 20.1239 9.62979 19.789 9.8188 19.5449C9.98222 19.3321 10.2257 19.2101 10.5974 19.2101C10.9658 19.2101 11.2125 19.3321 11.3759 19.5449C11.5649 19.789 11.6162 20.1239 11.6162 20.49ZM10.104 20.49C10.104 20.8561 10.1424 21.0407 10.2321 21.169C10.309 21.2817 10.4308 21.3411 10.5974 21.3411C10.764 21.3411 10.8857 21.2817 10.9626 21.169C11.0523 21.0407 11.0875 20.8561 11.0875 20.49C11.0875 20.127 11.0523 19.9424 10.9626 19.814C10.8857 19.7014 10.764 19.6419 10.5974 19.6419C10.4308 19.6419 10.309 19.7014 10.2321 19.814C10.1424 19.9424 10.104 20.127 10.104 20.49ZM13.2684 21.7292L12.4643 20.1426V21.7292H11.9388V19.2539H12.4707L13.2748 20.8436V19.2539H13.8035V21.7292H13.2684ZM14.1277 20.49C14.1277 20.1239 14.1822 19.789 14.3712 19.5449C14.5346 19.3321 14.7781 19.2101 15.1498 19.2101C15.7521 19.2101 16.1109 19.5543 16.143 20.0988H15.6175C15.5983 19.814 15.4381 19.6419 15.1498 19.6419C14.9832 19.6419 14.8614 19.7014 14.7845 19.814C14.6948 19.9424 14.6564 20.127 14.6564 20.49C14.6564 21.1596 14.8198 21.3411 15.1562 21.3411C15.483 21.3411 15.6143 21.1252 15.6367 20.7998H15.1626V20.418H16.1398V21.7292H15.7617L15.7008 21.4382C15.6111 21.6384 15.4029 21.773 15.0953 21.773C14.3616 21.773 14.1277 21.1816 14.1277 20.49ZM16.443 20.49C16.443 20.1239 16.4975 19.789 16.6865 19.5449C16.8499 19.3321 17.0934 19.2101 17.4651 19.2101C18.0674 19.2101 18.4262 19.5543 18.4583 20.0988H17.9328C17.9136 19.814 17.7534 19.6419 17.4651 19.6419C17.2985 19.6419 17.1767 19.7014 17.0998 19.814C17.0101 19.9424 16.9717 20.127 16.9717 20.49C16.9717 21.1596 17.1351 21.3411 17.4715 21.3411C17.7983 21.3411 17.9296 21.1252 17.952 20.7998H17.4779V20.418H18.4551V21.7292H18.077L18.0161 21.4382C17.9264 21.6384 17.7182 21.773 17.4106 21.773C16.6769 21.773 16.443 21.1816 16.443 20.49ZM19.7675 21.773C19.1108 21.773 18.7968 21.3944 18.7968 20.8123V19.2539H19.3254V20.7904C19.3254 21.1596 19.4632 21.3411 19.7675 21.3411C20.0687 21.3411 20.2097 21.1596 20.2097 20.7904V19.2539H20.7351V20.8123C20.7351 21.3944 20.4211 21.773 19.7675 21.773ZM22.9807 19.2539L22.2726 20.4587L23.0768 21.7292H22.4969L21.8465 20.6746H21.6223V21.7292H21.0968V19.2539H21.6223V20.2459H21.8465L22.4072 19.2539H22.9807ZM25.1553 21.773C24.4985 21.773 24.1846 21.3944 24.1846 20.8123V19.2539H24.7132V20.7904C24.7132 21.1596 24.851 21.3411 25.1553 21.3411C25.4565 21.3411 25.5975 21.1596 25.5975 20.7904V19.2539H26.1229V20.8123C26.1229 21.3944 25.8089 21.773 25.1553 21.773ZM27.8142 21.7292L27.01 20.1426V21.7292H26.4846V19.2539H27.0164L27.8206 20.8436V19.2539H28.3493V21.7292H27.8142ZM29.2534 19.2539V21.7292H28.7279V19.2539H29.2534ZM29.4656 19.2539H30.0039L30.5678 21.1784L31.1317 19.2539H31.6699L30.8593 21.7292H30.2762L29.4656 19.2539ZM32.2739 21.2191V21.7292H31.7484V21.2191H32.2739Z" fill="#A1A1AA"/>
</g>
<defs>
<clipPath id="clip0_1313_9337">
<rect width="40" height="22" fill="white"/>
</clipPath>
</defs>
</svg>
